<svg width="360" height="48" fill="none" xmlns="http://www.w3.org/2000/svg"><g clip-path="url(#clip0_220_17008)"><path d="M33.285 46.285a17.305 17.305 0 002.608-3.041c3.236-4.841 3.825-11.261 1.709-18.58-.68-2.343-.816-4.615-.408-6.738a12.14 12.14 0 012.479-5.364c1.566-1.968 3.695-3.476 6.16-4.427 0 0 1.845-.725 3.534-.13 1.69.596 3.074 1.89 3.63 3.055.286.595.298 1.56-.789 1.612-2.563.129-5.397 1.592-6.75 4.653-1.352 3.06-.4 5.966.596 7.416.919 1.34 4.012 5.048 4.485 8.083.666 4.284-.965 8.103-4.582 10.549-4.653 3.145-9.798 4.271-11.733 4.608-1.068.187-1.625-1.03-.92-1.696" fill="#17479E"/><path d="M18.31 1.922C25.713-.776 35.104-.815 43.025 2.977c.673.324.809 1.398-.02 1.793-6.173 2.925-11.085 9.144-10.121 17.66-9.59.027-16.742-7.429-17.551-15.738-.226-2.343 1.223-4.13 2.983-4.776l-.006.006z" fill="#D2232A"/><path d="M33.777 26.618c2.252 8.452.414 16.218-8.652 19.829-4.997 1.993-9.805.712-14.542-2.33-3.547-2.278-4.796-5.009-4.407-8.212.207-1.696.427-3.061-2.252-5.378C.908 27.912-.16 26.022.9 20.65 2.072 14.754 5.663 9.933 9.572 6.8c.628-.504 1.534-.09 1.612.667.925 8.957 8.924 19.57 22.592 19.15z" fill="#00AB4E"/><path d="M56.971 20.399c0 2.433-1.98 4.413-4.413 4.426a4.372 4.372 0 01-4.401-4.381c0-2.433 1.98-4.414 4.414-4.427a4.363 4.363 0 014.394 4.382h.006z" fill="#F7941D"/><path fill-rule="evenodd" clip-rule="evenodd" d="M112.446 9.85l-.013 6.543c-.925 2.873-2.647 4.485-5.151 4.834l-1.819-.026v4.867l2.893-.033c2.569-.634 4.718-1.922 6.433-3.876 1.792 2.2 3.928 3.579 6.575 3.74l6.944-.019v8.31l-14.632.051v-5.578h-4.608l.013 8.53c.285.906.822 1.533 1.922 1.54l22.165-.052-.065-23.375c-.006-.667.279-1.042.848-1.133l4.919.013V9.779l-9.494-.02c-.68.609-1.113 1.275-1.204 2.46l.259 8.956-6.122-.032c-2.595-.388-4.491-1.942-5.378-5.21v-6.07l-4.466-.013h-.019zm37.335.026v7.351c-.686 3.398-2.802 5.488-5.909 6.68l-2.155.012-.013 4.776 2.207-.026c3.43-.79 6.07-2.485 8.226-5.138 2.426 2.931 5.41 4.537 8.911 4.938l3.935-.09-.013 10.321 4.536.02-.116-28.948-4.776.09.026 14.4-2.699-.136c-4.129-.498-6.439-3.28-7.507-7.617l-.026-6.685-4.621.039-.006.013zM84.016 21.803c1.676-4.893.796-8.607-2.2-11.338-3.501-2.33-7.294-2.667-11.52-.104-2.828 2.725-3.604 6.433-2.323 11.118 2.543 4.2 5.941 5.501 9.934 4.809-1.695 4.666-.841 8.6 2.543 11.798 3.961 2.485 7.799 2.53 11.513.129 2.065-1.696 3.126-3.967 3.495-6.64V21.26l5.805.058-.013-4.756h-5.695l-.013-2.582 5.715.013-.02-4.589h-9.274c-.77.175-1.197.706-1.268 1.599l.104 11.649c.239-.861-6.278-1.773-6.783-.848zm-7.792-8.452c2.272 0 4.123 1.87 4.123 4.168 0 2.297-1.851 4.167-4.123 4.167-2.271 0-4.122-1.876-4.122-4.167s1.85-4.168 4.122-4.168zm9.986 12.827c2.472 0 4.491 2.038 4.491 4.543 0 2.504-2.019 4.543-4.49 4.543-2.473 0-4.492-2.039-4.492-4.543 0-2.505 2.019-4.543 4.491-4.543" fill="#000"/></g><path d="M182.935 34.59v3.78h29.33v-3.78h-29.33zm12.285-6.93v7.84h4.655v-7.84h-4.655zm-9.205-15.89v16.87h23.065V11.77h-4.62v4.97h-13.825v-4.97h-4.62zm4.62 8.61h13.825v4.55h-13.825v-4.55zm48.682-10.675V33.4h4.655V9.705h-4.655zm-5.6 9.415v3.78h6.265v-3.78h-6.265zm-4.62-7v2.1c0 5.495-4.41 9.975-11.865 12.32l1.925 3.71c9.415-2.975 14.84-9.38 14.84-18.13h-4.9zm-10.185 0v3.745h13.16V12.12h-13.16zm3.815 25.725v3.71h22.05v-3.71h-22.05zm0-6.79v8.925h4.69v-8.925h-4.69zm28.102 3.465v3.815h29.33V34.52h-29.33zm12.18-7.21v8.225h4.62V27.31h-4.62zm-.175-15.82v2.345c0 4.48-3.955 9.45-11.34 10.64l1.925 3.885c8.47-1.54 13.475-7.63 13.475-14.525V11.49h-4.06zm.91 0v2.345c0 7 5.005 12.95 13.51 14.525l1.925-3.885c-7.42-1.19-11.375-6.055-11.375-10.64V11.49h-4.06zm48.212 5.46v3.745h6.16V16.95h-6.16zm4.935-7.245v17.71h4.655V9.705h-4.655zm-16.87 19.04v13.02h21.525v-13.02h-4.62v2.94h-12.285v-2.94h-4.62zm4.62 6.545h12.285v2.765h-12.285V35.29zm-2.73-23.1v2.065c0 4.095-2.31 8.33-7.665 10.08l2.345 3.71c6.23-2.065 9.1-7.7 9.1-13.79V12.19h-3.78zm.98 0v2.065c0 5.775 2.765 11.13 8.785 13.125l2.275-3.605c-5.11-1.715-7.315-5.74-7.315-9.52V12.19h-3.745zm-7.385-1.015v3.71h17.43v-3.71h-17.43zm45.078-.525v1.505c0 3.815-3.675 8.05-11.13 9.03l1.82 3.745c8.505-1.26 13.405-6.545 13.405-12.775V10.65h-4.095zm.875 0v1.505c0 6.23 4.9 11.515 13.405 12.775l1.785-3.745c-7.42-.98-11.13-5.25-11.13-9.03V10.65h-4.06zm-.84 19.6v11.865h4.62V30.25h-4.62zm-12.215-2.94v3.78h29.295v-3.78h-29.295z" fill="#000"/><defs><clipPath id="clip0_220_17008"><path fill="#fff" transform="translate(.5)" d="M0 0h169v48H0z"/></clipPath></defs></svg>