<svg width="606" height="426" viewBox="0 0 606 426" fill="none" xmlns="http://www.w3.org/2000/svg">
<g clip-path="url(#clip0_223_20285)">
<path d="M605.5 0H0.5V426H605.5V0Z" fill="white"/>
<path d="M42.5539 401.416C90.5549 337.066 59.3864 280.014 43.9998 203.706C6.29608 82.1736 153.105 -15.9296 299.922 79.0217C391.001 137.924 476.038 78.305 544.349 140.198C598.674 189.419 544.576 293.285 543.402 340.092C542.477 376.989 574.235 401.416 574.235 401.416H42.5539Z" fill="#EEEEEE" fill-opacity="0.5"/>
<path d="M603.824 403.839H1.83139C1.24156 403.839 0.762329 403.36 0.762329 402.77C0.762329 402.18 1.24156 401.701 1.83139 401.701H603.824C604.414 401.701 604.893 402.18 604.893 402.77C604.893 403.36 604.414 403.839 603.824 403.839Z" fill="black"/>
<path d="M510.704 384.61C524.465 384.61 535.62 373.455 535.62 359.694V325.728H485.788V359.694C485.788 373.455 496.944 384.61 510.704 384.61V384.61Z" fill="#00AB4E"/>
<path d="M535.622 404.119H538.383V351.398H535.622V404.119Z" fill="#425899"/>
<path d="M483.027 404.119H485.788V351.398H483.027V404.119Z" fill="#425899"/>
<path d="M504.161 404.119H506.921V351.398H504.161V404.119Z" fill="#425899"/>
<path d="M538.383 387.373V384.612H485.661V387.373H538.383Z" fill="#425899"/>
<path d="M502.416 261.566C507.071 264.044 503.393 270.131 505.3 275.9C507.206 281.672 514.866 281.53 511.972 291.856C510.19 298.215 503.878 294.23 504.022 302.498C504.167 310.766 507.296 310.563 504.867 314.814C500.632 322.224 486.194 318.079 486.079 309.805C485.964 301.531 492.891 298.715 487.04 294.867C481.188 291.019 478.847 289.268 482.698 283.765C487.466 276.953 494.857 277.16 492.788 271.843C490.72 266.527 496.256 258.288 502.412 261.564L502.416 261.566Z" fill="#62F2A4"/>
<path d="M499.956 325.542L498.744 325.89C490.505 297.177 498.22 270.141 498.297 269.873L499.508 270.227C499.43 270.494 491.822 297.193 499.956 325.542Z" fill="#425899"/>
<path d="M564.194 255.541C567.628 261.708 559.074 265.881 557.028 273.754C554.982 281.626 564.151 283.892 553.401 293.4C546.78 299.258 545.154 295.897 543.257 308.326C541.588 319.269 532.825 309.397 527.006 316.072C519.498 324.684 506.158 307.341 512.037 297.953C517.917 288.565 525.454 290.519 521.667 281.944C517.88 273.367 521.505 266.567 529.832 263.176C540.138 258.978 544.373 267.592 545.909 260.11C547.445 252.631 559.649 247.386 564.194 255.541V255.541Z" fill="#62F2A4"/>
<path d="M514.978 325.693C526.42 287.887 554.357 263.41 554.638 263.168L553.534 261.89C553.249 262.136 524.946 286.935 513.362 325.204L514.978 325.693Z" fill="#425899"/>
<path d="M90.7065 161.65C91.2185 164.753 92.9429 167.567 95.3104 169.597C97.6779 171.626 100.699 172.89 103.801 172.89H132.914C137.016 172.89 140.242 170.686 141.661 167.403C142.388 165.72 142.642 163.756 142.296 161.652C141.784 158.55 140.059 155.736 137.7 153.706C135.324 151.676 132.312 150.413 129.209 150.413H100.097C98.6609 150.413 97.3318 150.685 96.1521 151.173C92.2241 152.807 89.9221 156.883 90.7065 161.652V161.65Z" fill="#61B8FF"/>
<path d="M131.441 184.189C132.555 184.189 133.348 183.101 133.006 182.04L129.096 169.908C128.877 169.228 128.246 168.769 127.532 168.769C126.417 168.769 125.625 169.857 125.967 170.918L129.876 183.05C130.096 183.73 130.726 184.189 131.441 184.189Z" fill="#123E80"/>
<path d="M112.163 184.189C113.277 184.189 114.07 183.101 113.728 182.04L109.818 169.908C109.599 169.228 108.968 168.769 108.254 168.769C107.14 168.769 106.347 169.857 106.689 170.918L110.599 183.05C110.818 183.73 111.449 184.189 112.163 184.189Z" fill="#123E80"/>
<path d="M95.5275 156.907C96.0395 160.01 97.7639 162.824 100.131 164.862C102.499 166.891 105.52 168.155 108.622 168.155H137.735C139.162 168.155 140.483 167.891 141.663 167.403C142.39 165.72 142.644 163.756 142.298 161.652C141.786 158.55 140.061 155.736 137.702 153.706C135.326 151.676 132.314 150.413 129.211 150.413H100.099C98.663 150.413 97.3339 150.685 96.1542 151.173C95.4354 152.856 95.1814 154.812 95.5275 156.907V156.907Z" fill="#9EDDFF"/>
<path d="M219.743 385.99H214.256V396.202H219.743V385.99Z" fill="#0D192B"/>
<path d="M178.598 385.99H173.112V396.202H178.598V385.99Z" fill="#0D192B"/>
<path d="M132.611 385.99H127.124V396.202H132.611V385.99Z" fill="#0D192B"/>
<path d="M131.23 402.784C133.541 402.784 135.414 399.822 135.414 396.169C135.414 392.515 133.541 389.554 131.23 389.554C128.92 389.554 127.046 392.515 127.046 396.169C127.046 399.822 128.92 402.784 131.23 402.784Z" fill="#0D192B"/>
<path d="M135.285 402.784C137.596 402.784 139.469 399.822 139.469 396.169C139.469 392.515 137.596 389.554 135.285 389.554C132.975 389.554 131.101 392.515 131.101 396.169C131.101 399.822 132.975 402.784 135.285 402.784Z" fill="#0D192B"/>
<path d="M136.897 402.249C135.156 403.607 130.29 402.993 129.61 402.29L129.58 390.086C130.886 388.943 135.492 388.982 136.895 390.023V402.249H136.897Z" fill="#0D192B"/>
<path d="M135.679 400.523C137.262 400.523 138.546 398.493 138.546 395.989C138.546 393.484 137.262 391.454 135.679 391.454C134.095 391.454 132.811 393.484 132.811 395.989C132.811 398.493 134.095 400.523 135.679 400.523Z" fill="#1E62CC"/>
<path d="M135.375 398.882C136.34 398.882 137.122 397.646 137.122 396.12C137.122 394.594 136.34 393.357 135.375 393.357C134.411 393.357 133.629 394.594 133.629 396.12C133.629 397.646 134.411 398.882 135.375 398.882Z" fill="#0D192B"/>
<path d="M175.027 402.784C177.338 402.784 179.211 399.822 179.211 396.169C179.211 392.515 177.338 389.554 175.027 389.554C172.716 389.554 170.843 392.515 170.843 396.169C170.843 399.822 172.716 402.784 175.027 402.784Z" fill="#0D192B"/>
<path d="M170.974 402.784C173.285 402.784 175.158 399.822 175.158 396.169C175.158 392.515 173.285 389.554 170.974 389.554C168.663 389.554 166.79 392.515 166.79 396.169C166.79 399.822 168.663 402.784 170.974 402.784Z" fill="#0D192B"/>
<path d="M169.36 402.249C171.101 403.607 175.967 402.993 176.647 402.29L176.677 390.086C175.371 388.943 170.765 388.982 169.362 390.023V402.249H169.36Z" fill="#0D192B"/>
<path d="M170.579 400.523C172.162 400.523 173.446 398.493 173.446 395.989C173.446 393.484 172.162 391.454 170.579 391.454C168.995 391.454 167.711 393.484 167.711 395.989C167.711 398.493 168.995 400.523 170.579 400.523Z" fill="#1E62CC"/>
<path d="M170.882 398.882C171.846 398.882 172.629 397.646 172.629 396.12C172.629 394.594 171.846 393.357 170.882 393.357C169.917 393.357 169.135 394.594 169.135 396.12C169.135 397.646 169.917 398.882 170.882 398.882Z" fill="#0D192B"/>
<path d="M216.818 402.784C219.129 402.784 221.002 399.822 221.002 396.169C221.002 392.515 219.129 389.554 216.818 389.554C214.507 389.554 212.634 392.515 212.634 396.169C212.634 399.822 214.507 402.784 216.818 402.784Z" fill="#0D192B"/>
<path d="M212.763 402.784C215.074 402.784 216.947 399.822 216.947 396.169C216.947 392.515 215.074 389.554 212.763 389.554C210.452 389.554 208.579 392.515 208.579 396.169C208.579 399.822 210.452 402.784 212.763 402.784Z" fill="#0D192B"/>
<path d="M211.149 402.249C212.89 403.607 217.756 402.993 218.436 402.29L218.467 390.086C217.16 388.943 212.554 388.982 211.151 390.023V402.249H211.149Z" fill="#0D192B"/>
<path d="M212.368 400.523C213.952 400.523 215.235 398.493 215.235 395.989C215.235 393.484 213.952 391.454 212.368 391.454C210.784 391.454 209.501 393.484 209.501 395.989C209.501 398.493 210.784 400.523 212.368 400.523Z" fill="#1E62CC"/>
<path d="M212.671 398.882C213.636 398.882 214.418 397.646 214.418 396.12C214.418 394.594 213.636 393.357 212.671 393.357C211.706 393.357 210.924 394.594 210.924 396.12C210.924 397.646 211.706 398.882 212.671 398.882Z" fill="#0D192B"/>
<path d="M180.659 300.998H172.667V384.229H180.659V300.998Z" fill="#0D192B"/>
<path d="M223.548 386.996C223.558 386.926 223.611 386.861 223.611 386.791C223.611 382.386 201.827 378.814 174.955 378.814C148.083 378.814 126.299 382.386 126.299 386.791C126.299 386.861 126.352 386.926 126.362 386.996H223.55H223.548Z" fill="#1A56B3"/>
<path d="M170.024 325.703H183.014V309.86H170.024V325.703Z" fill="#1A56B3"/>
<path d="M170.024 381.466H183.014V365.623H170.024V381.466Z" fill="#1A56B3"/>
<path d="M152.253 176.697V176.713C152.081 176.697 151.909 176.697 151.737 176.697H152.253Z" fill="#4A82DB"/>
<path d="M90.6184 184.561C90.6184 185.352 90.7126 186.167 90.9113 187.009L117.838 291.086C117.959 291.592 118.105 292.09 118.293 292.579C120.286 300.511 127.513 306.024 135.711 305.801L163.861 305.072H219.337C222.694 305.072 225.717 303.759 227.906 301.637C230.104 299.518 231.47 296.589 231.47 293.353C231.47 292.202 231.289 291.104 230.945 290.074C229.391 285.327 224.515 282.081 219.012 282.081C219.012 282.081 194.063 282.759 186.792 275.771C179.512 268.775 163.111 187.482 163.111 187.482C161.721 181.704 155.874 176.982 149.89 176.715C149.709 176.699 149.529 176.699 149.357 176.699C149.357 176.699 111.694 176.365 100.148 176.416C99.2712 176.416 98.5421 176.425 97.9933 176.433C97.4874 176.441 97.17 176.449 97.0573 176.457C97.0307 176.466 97.0225 176.466 97.0225 176.466C93.1252 177.324 90.6184 180.5 90.6184 184.561V184.561ZM126.037 281.643H126.741L127.058 283.025L126.612 282.425L126.037 281.645V281.643Z" fill="#9EDDFF"/>
<path d="M128.683 305.109C128.672 305.16 128.623 305.211 128.623 305.262C128.623 308.574 149.394 311.259 175.014 311.259C200.635 311.259 221.406 308.574 221.406 305.262C221.406 305.211 221.357 305.16 221.346 305.109H128.683V305.109Z" fill="#1A56B3"/>
<path d="M90.6184 184.561C90.6184 185.352 90.7126 186.167 90.9113 187.009L117.838 291.086C117.959 291.592 118.105 292.09 118.293 292.579C120.286 300.511 127.513 306.024 135.711 305.801L163.861 305.072H219.337C222.694 305.072 225.717 303.759 227.906 301.637C230.104 299.518 231.47 296.589 231.47 293.353C231.47 292.202 231.289 291.105 230.945 290.074C227.769 298.338 135.044 298.92 128.597 288.219C122.295 282.751 108.811 189.612 100.148 176.417C99.2712 176.417 98.5421 176.425 97.9933 176.433C97.4874 176.441 97.17 176.449 97.0573 176.457C97.0307 176.466 97.0225 176.466 97.0225 176.466C93.1252 177.324 90.6184 180.5 90.6184 184.561Z" fill="#61B8FF"/>
<path d="M137.43 189.749C145.994 183.367 175.387 178.411 194.198 187.23C197.186 190.06 201.487 200.335 204.174 209.991L211.606 290.597H148.012L137.43 189.749Z" fill="#AAE0FF"/>
<path d="M174.261 193.706L173.257 197.325L180.421 242.212L176.638 249.505L169.894 242.268L171.009 197.38L169.382 194.984L171.283 192.262L174.261 193.706Z" fill="#838383"/>
<path d="M178.553 180.656C178.414 185.987 174.253 189.014 171.269 192.051C162.419 189.741 155.708 184.32 153.746 179.298L149.572 183.443C150.316 189.925 155.509 196.624 163.406 203.458C164.611 199.981 166.46 196.784 171.721 193.909L183.563 197.28C184.232 192.674 184.755 188.381 182.064 182.968L178.555 180.658L178.553 180.656Z" fill="#61B8FF"/>
<path d="M244.134 402.272C248.361 402.272 248.361 395.399 244.134 395.399C244.134 395.399 227.314 390.705 226.825 390.705C226.335 390.705 208.372 391.209 208.372 391.209C206.001 394.5 206.791 399.145 207.041 402.721L244.134 402.274V402.272Z" fill="#73382A"/>
<path d="M148.415 402.405C148.104 398.846 147.598 395.053 150.055 391.817C154.244 390.277 162.163 386.718 170.32 391.319C170.32 391.319 170.478 393.619 176.804 396.234C178.377 398.02 179.01 399.818 178.293 402.405H148.415V402.405Z" fill="#73382A"/>
<path d="M207.696 390.703L225.438 299.503L173.065 290.625V265.619C173.065 265.619 213.937 265.648 213.369 265.648C211.573 265.648 251.794 262.868 257.428 284.704C263.062 306.54 228.912 390.434 228.912 390.434C224.033 389.765 212.798 393.148 208.608 394.463C205.026 395.587 204.043 393.549 207.696 390.703V390.703Z" fill="#0D192B"/>
<path d="M204.467 265.648L164.991 297.877L168.248 391.137C157.834 385.392 146.424 396.345 145.548 395.086C145.548 395.086 144.286 394.481 146.381 389.49C142.388 369.414 127.83 294.162 132.363 285.794C137.599 276.127 146.383 265.081 146.383 265.081L204.465 265.648H204.467Z" fill="#0D192B"/>
<path d="M150.649 182.395C151.253 184.811 158.391 256.469 157.787 267.346C157.182 278.222 130.685 280.612 131.202 302.995C131.748 326.768 132.467 337.068 132.467 337.068C122.647 335.63 117.378 324.135 115.94 316.229C113.685 302.506 115.299 286.904 125.52 267.128C125.52 267.128 128.25 192.309 131.652 189.886C137.722 185.567 150.649 182.395 150.649 182.395V182.395Z" fill="white"/>
<path d="M145.329 214.579C145.329 214.579 141.929 224.504 141.929 228.616C141.929 232.728 161.833 241.369 161.833 241.369H129.317V225.982L145.329 214.577V214.579Z" fill="#D9F1FF"/>
<path d="M163.384 244.449C163.384 244.449 167.285 240.924 173.47 240.435C179.655 239.943 185.08 251.715 185.08 251.715H163.677L163.382 244.449H163.384Z" fill="#F7B28A"/>
<path d="M175.113 240.58C175.113 240.58 184.847 243.333 186.205 243.693C186.84 246.261 180.141 245.154 177.042 244.011C173.628 242.753 175.113 240.578 175.113 240.578V240.58Z" fill="#F7B28A"/>
<path d="M132.416 189.139C126.471 192.825 110.089 231.455 109.933 241.85C109.863 246.436 111.787 250.978 120.495 251.537C125.303 251.847 166.122 252.197 166.122 252.197L165.602 241.369L134.835 232.587L144.233 216.992C155.474 211.206 145.847 181.967 132.416 189.141V189.139Z" fill="white"/>
<path d="M238.085 188.969C238.085 188.969 234.316 179.749 234.779 177.236C235.242 174.723 244.509 171.477 244.968 172.591C245.427 173.707 246.389 176.457 240.323 178.112C244.388 181.858 248.951 189.323 238.085 188.967V188.969Z" fill="#F7A594"/>
<path d="M237.595 189.387C237.595 189.387 236.825 181.072 238.175 177.725C239.971 173.269 245.277 170.404 245.277 170.404C245.277 170.404 254.661 177.768 254.948 179.099C255.235 180.431 247.417 188.586 247.417 188.586C247.417 188.586 241.593 194.117 237.595 189.387Z" fill="#F7A594"/>
<path d="M238.707 178.479C238.707 178.479 241.001 157.733 244.272 158.335C245.779 158.613 243.657 178.423 243.657 178.423L238.709 178.479H238.707Z" fill="#F7A594"/>
<path d="M237.032 186.353C237.052 186.359 237.077 186.359 237.1 186.351C237.157 186.331 237.188 186.267 237.167 186.21C236.201 183.496 234.619 178.727 234.89 177.258C235.246 175.321 241.316 172.773 243.934 172.501C244.714 172.419 244.845 172.583 244.866 172.636C245.169 173.371 245.414 174.252 244.95 175.198C244.368 176.377 242.801 177.324 240.294 178.008L240.1 178.061L240.247 178.196C241.935 179.751 243.952 182.198 244.552 184.399C244.569 184.459 244.63 184.494 244.689 184.477C244.749 184.461 244.784 184.399 244.767 184.34C244.173 182.157 242.224 179.746 240.544 178.167C243.004 177.469 244.552 176.502 245.148 175.294C245.722 174.131 245.265 173.023 245.072 172.55C244.968 172.296 244.589 172.208 243.911 172.277C241.257 172.554 235.056 175.122 234.671 177.215C234.39 178.735 235.983 183.55 236.958 186.284C236.971 186.318 236.999 186.343 237.032 186.353V186.353Z" fill="#E6836F"/>
<path d="M248.312 182.415C248.343 182.423 248.376 182.431 248.407 182.44L248.482 182.458L248.523 182.39C249.855 180.289 253.033 179.441 253.066 179.433C253.125 179.417 253.162 179.357 253.146 179.298C253.131 179.239 253.07 179.202 253.011 179.218C252.877 179.253 249.783 180.078 248.38 182.204H248.37C246.375 181.627 243.573 176.912 243.545 176.863C243.514 176.81 243.446 176.793 243.393 176.824C243.34 176.855 243.323 176.924 243.354 176.976C243.473 177.176 246.232 181.815 248.312 182.415V182.415Z" fill="#E6836F"/>
<path d="M237.956 186.72L234.56 199.672L245.034 203.032L246.316 188.244L237.956 186.72Z" fill="#F7A594"/>
<path d="M205.853 193.065L227.269 214.579L236.796 189.841L249.26 193.765C249.26 193.765 249.109 229.916 238.293 237.703C221.731 247.82 193.352 216.948 193.352 216.948C182.252 201.427 199.214 184.062 205.853 193.065V193.065Z" fill="white"/>
<path d="M182.193 183.287C182.193 183.287 187.915 261.885 198.185 268.531C208.458 275.177 244.757 270.651 244.757 270.651C244.757 270.651 208.54 257.675 207.936 248.008C207.332 238.34 204.993 192.26 204.993 192.26C201.63 188.131 190.958 183.24 182.193 183.287V183.287Z" fill="white"/>
<path d="M185.199 215.656C185.484 215.656 185.719 215.429 185.728 215.142C185.732 215.021 186.027 202.946 184.235 190.304C182.574 178.6 172.825 172.933 164.471 172.622C156.371 172.318 150.125 176.746 148.56 183.896C147.153 190.333 148.976 201.312 149.054 201.777C149.103 202.064 149.373 202.26 149.662 202.209C149.949 202.16 150.143 201.888 150.094 201.601C150.076 201.488 148.226 190.357 149.59 184.121C151.04 177.494 156.871 173.396 164.428 173.676C172.358 173.971 181.611 179.347 183.186 190.451C184.966 203.004 184.673 214.995 184.671 215.114C184.663 215.404 184.894 215.648 185.185 215.656C185.189 215.656 185.195 215.656 185.199 215.656V215.656Z" fill="#0D192B"/>
<path d="M187.165 220.809C187.782 217.467 186.756 214.477 184.873 214.129C182.99 213.781 180.963 216.208 180.346 219.55C179.729 222.891 180.756 225.881 182.639 226.229C184.522 226.577 186.549 224.15 187.165 220.809Z" fill="#1B658F"/>
<path d="M183.892 219.963C183.491 222.14 184.161 224.088 185.388 224.315C186.614 224.542 187.935 222.961 188.337 220.784C188.738 218.607 188.068 216.66 186.842 216.432C185.615 216.205 184.294 217.786 183.892 219.963Z" fill="#2997D6"/>
<path d="M144.497 232.005L147.85 231.575C148.138 231.538 148.343 231.274 148.306 230.983C148.269 230.695 148.003 230.49 147.714 230.527L145.177 230.852C141.732 221.933 141.534 212.353 144.72 207.439C146.291 205.017 148.609 203.722 151.612 203.597C154.426 203.477 156.904 204.408 158.985 206.36C165.317 212.299 166.337 226.001 166.484 228.941L164.563 228.868C164.279 228.847 164.027 229.083 164.017 229.376C164.006 229.666 164.232 229.912 164.524 229.922L167.576 230.039L167.564 229.478C167.549 228.79 167.111 212.535 159.71 205.59C157.414 203.436 154.676 202.41 151.569 202.543C148.206 202.684 145.605 204.138 143.836 206.866C142.064 209.598 141.228 213.534 141.417 218.247C141.589 222.558 142.631 227.309 144.345 231.626L144.497 232.007V232.005Z" fill="#0D192B"/>
<path d="M153.676 201.844L153.648 204.45C153.648 204.45 150.69 203.278 147.737 205.191C146.981 204.146 146.449 203.36 146.449 203.36C146.449 203.36 148.812 200.802 153.678 201.844H153.676Z" fill="#1B658F"/>
<path d="M151.46 202.762L150.891 199.797C150.066 199.346 148.296 199.825 148.026 200.468L148.681 203.354L151.46 202.762V202.762Z" fill="#1B658F"/>
<path d="M171.09 190.765C160.979 192.236 154.691 185.181 153.213 182.229L157.282 156.967L165.509 160.639C168.872 160.918 172.232 161.723 175.122 162.866L177.731 176.337L178.307 179.26C179.62 182.135 181.201 189.293 171.09 190.765Z" fill="#F7A594"/>
<path d="M159.914 163.384C160.243 166.509 164.356 179.176 178.008 177.859L175.474 164.682L159.914 163.384V163.384Z" fill="#E6836F"/>
<path d="M191.695 147.6C191.228 151.706 190.089 160.678 188.506 164.432C186.098 170.146 178.645 174.773 173.779 173.986C168.29 172.651 161.706 168.444 159.004 163.576C157.741 160.162 155.685 152.402 155.619 146.23C155.482 133.356 166.621 126.102 177.228 127.304C187.834 128.506 193.153 134.8 191.695 147.6V147.6Z" fill="#F7A594"/>
<path d="M156.428 154.973C155.603 150.469 158.97 149.935 161.065 153.938C161.522 150.918 161.182 141.478 165.007 139.721C169.357 137.651 183.107 144.002 193.534 138.691C193.534 138.691 192.186 124.206 170.905 125.07C145.869 128.914 156.428 154.973 156.428 154.973V154.973Z" fill="#73382A"/>
<path d="M158.128 158.324C160.153 157.693 161.131 155.055 160.313 152.432C159.495 149.809 157.191 148.195 155.166 148.826C153.141 149.457 152.163 152.095 152.981 154.718C153.799 157.341 156.103 158.956 158.128 158.324Z" fill="#F7A594"/>
<path d="M183.677 164.75C182.862 164.899 181.426 165.579 180.007 166.331C177.949 167.423 175.929 168.668 175.929 168.668C175.929 168.668 169.836 164.983 170.004 159.071C170.086 159.161 170.17 159.249 170.256 159.337C174.989 164.215 183.677 164.752 183.677 164.752V164.75Z" fill="#A65B4A"/>
<path d="M183.677 164.75C182.862 164.899 181.426 165.579 180.007 166.331C173.83 164.916 171.29 161.596 170.256 159.337C174.989 164.215 183.677 164.752 183.677 164.752V164.75Z" fill="white"/>
<path d="M183.351 161.885C182.114 161.809 181.147 161.09 181.133 161.08C181.023 160.996 181 160.838 181.084 160.728C181.168 160.617 181.326 160.594 181.436 160.678C181.518 160.74 183.451 162.169 185.205 160.816C186.167 160.072 185.917 159.574 185.246 158.245C184.611 156.986 183.648 155.081 183.316 151.843C183.302 151.704 183.402 151.581 183.542 151.567C183.679 151.552 183.804 151.653 183.818 151.792C184.142 154.938 185.078 156.791 185.696 158.018C186.388 159.388 186.804 160.216 185.512 161.213C184.783 161.774 184.025 161.926 183.349 161.883L183.351 161.885Z" fill="#A65B4A"/>
<path d="M176.634 149.459C176.576 150.408 176.105 151.149 175.583 151.116C175.061 151.083 174.684 150.291 174.743 149.343C174.803 148.394 175.272 147.653 175.794 147.686C176.316 147.719 176.693 148.513 176.634 149.459Z" fill="#1E1E1E"/>
<path d="M189.88 150.08C189.827 150.942 189.399 151.62 188.922 151.589C188.447 151.561 188.105 150.836 188.158 149.973C188.211 149.111 188.639 148.433 189.114 148.464C189.589 148.493 189.931 149.218 189.878 150.08H189.88Z" fill="#1E1E1E"/>
<path d="M190.839 139.367C190.839 139.367 201.279 138.349 198.017 128.162C194.783 131.451 191.494 129.844 191.494 129.844C191.494 129.844 195.33 125.037 188.987 118C187.976 122.389 179.265 124.32 174.281 123.026C166.385 120.978 158.394 123.804 157.546 131.423C157.546 131.423 152.379 132.682 154.179 142.951C162.156 142.67 165.687 135.398 171.571 134.343C177.455 133.29 182.46 140.55 190.839 139.365V139.367Z" fill="#73382A"/>
<path d="M180.756 172.399C180.756 172.399 177.031 173.274 174.983 173.224C172.28 173.161 168.005 171.664 168.005 171.664L175.102 175.459L180.758 172.397L180.756 172.399Z" fill="#A65B4A"/>
<path d="M193.858 241.436C197.299 241.086 204.532 236.591 206.259 235.104L227.269 252.094H194.716L193.858 241.436V241.436Z" fill="#2B7EAB"/>
<path d="M224.197 252.145C223.314 252.145 197.006 236.095 197.006 236.095C191.222 240.877 185.172 243.204 179.055 244.922C180.843 248.473 183.46 250.865 186.379 252.197L224.197 252.143V252.145Z" fill="#69BFF0"/>
<path d="M93.3484 252.084H125.809V247.04H93.3484V252.084Z" fill="#BAE7FF"/>
<path d="M65.7127 252.084H93.3484V247.04H65.7127V252.084Z" fill="#69BFF0"/>
<path d="M121.422 248.684H95.4312L107.494 251.097L121.422 248.684Z" fill="#69BFF0"/>
<path d="M108.821 258.273H103.367V401.31H108.821V258.273Z" fill="#838383"/>
<path d="M108.821 258.33H103.367V270.61H108.821V258.33Z" fill="#838383"/>
<path d="M350.366 401.906H355.822V377.071H350.366V401.906Z" fill="#838383"/>
<path d="M317.537 401.906H322.993V377.071H317.537V401.906Z" fill="#838383"/>
<path d="M57.2442 256.743V402.108L52.0566 401.287V256.743H57.2442Z" fill="#838383"/>
<path d="M249.152 401.906H254.608V377.071H249.152V401.906Z" fill="#838383"/>
<path d="M277.791 401.906H283.247V377.071H277.791V401.906Z" fill="#838383"/>
<path d="M37.1431 258.261L300.489 258.261V252.115L37.1431 252.115V258.261Z" fill="#838383"/>
<path d="M280.869 257.734H247.161V377.465H280.869V257.734Z" fill="#838383"/>
<path d="M359.111 257.734H276.19V377.465H359.111V257.734Z" fill="#838383"/>
<path d="M356.858 261.89H280.316V377.467H356.858V261.89Z" fill="#C2C2C2"/>
<path d="M95.8858 258.261L359.232 258.261V252.115L95.8858 252.115V258.261Z" fill="#C2C2C2"/>
<path d="M312.83 252.117H327.359L324.496 227.272H309.965L312.83 252.117Z" fill="#ADADAD"/>
<path d="M308.603 227.272L308.614 227.373L310.162 240.793L311.467 252.115H325.997L323.335 229.017L323.327 228.948L323.134 227.272H308.603Z" fill="#474747"/>
<path d="M291.712 252.07H337.863V249.526H291.712V252.07Z" fill="#ADADAD"/>
<path d="M325.422 249.524H288.488V252.068H325.422V249.524Z" fill="#474747"/>
<path d="M308.614 227.373L310.162 240.793L323.335 229.017L323.403 228.958L323.327 228.948L308.614 227.373Z" fill="#2B2B2B"/>
<path d="M271.6 228.87H350.44C352.158 228.87 353.664 227.477 353.805 225.761L358.308 170.999C358.45 169.281 357.172 167.891 355.456 167.891H276.616C274.897 167.891 273.392 169.283 273.251 170.999L268.747 225.761C268.606 227.479 269.884 228.87 271.6 228.87Z" fill="#ADADAD"/>
<path d="M270.138 228.8H348.978C350.696 228.8 352.201 227.408 352.342 225.691L356.846 170.93C356.987 169.212 355.709 167.821 353.993 167.821H275.153C273.435 167.821 271.93 169.214 271.789 170.93L267.285 225.691C267.144 227.41 268.422 228.8 270.138 228.8V228.8Z" fill="#474747"/>
<path d="M271.87 224.321H348.421L352.59 172.091H276.04L271.87 224.321Z" fill="#D9F3FF"/>
<path d="M278.115 249.524H253.983V252.07H278.115V249.524Z" fill="#ADADAD"/>
<path d="M228.74 251.091V252.07H253.983V249.524L228.74 251.091Z" fill="#474747"/>
<path d="M285.406 215.275L337.894 214.64C340.1 214.614 342.023 212.746 342.188 210.469L344.144 183.607C344.31 181.33 342.655 179.505 340.45 179.532L287.962 180.166C285.756 180.193 283.833 182.061 283.667 184.338L281.711 211.2C281.545 213.477 283.2 215.302 285.406 215.275Z" fill="#80B2FF"/>
<path d="M289.948 191.324L305.363 191.138C305.849 191.132 306.273 190.72 306.309 190.22C306.346 189.718 305.982 189.317 305.496 189.323L290.081 189.509C289.596 189.516 289.172 189.927 289.135 190.427C289.098 190.929 289.463 191.33 289.948 191.324Z" fill="#D9F3FF"/>
<path d="M289.586 196.282L310.123 196.034C310.608 196.028 311.032 195.616 311.069 195.117C311.106 194.615 310.741 194.214 310.256 194.22L289.719 194.468C289.233 194.474 288.809 194.885 288.773 195.385C288.736 195.887 289.1 196.288 289.586 196.282Z" fill="#D9F3FF"/>
<path d="M289.162 202.123L309.699 201.875C310.185 201.869 310.608 201.457 310.645 200.958C310.682 200.456 310.318 200.054 309.832 200.061L289.295 200.308C288.809 200.315 288.386 200.726 288.349 201.226C288.312 201.728 288.676 202.129 289.162 202.123Z" fill="#D9F3FF"/>
<path d="M288.736 207.962L309.273 207.714C309.759 207.708 310.182 207.296 310.219 206.796C310.256 206.295 309.892 205.893 309.406 205.899L288.869 206.147C288.383 206.153 287.96 206.565 287.923 207.065C287.886 207.566 288.25 207.968 288.736 207.962Z" fill="#D9F3FF"/>
<path d="M328.821 191.69C327.228 193.062 326.107 202.979 328.176 205.762C329.124 207.036 330.759 207.05 332.178 207.409C333.859 207.833 335.211 209.713 335.909 208.82C337.198 207.173 337.511 200.556 335.367 196.276C334.621 194.787 330.414 190.318 328.821 191.69V191.69Z" fill="#D9F3FF"/>
<path d="M322.181 191.69C323.775 193.062 324.895 202.979 322.827 205.762C321.878 207.036 320.244 207.05 318.825 207.409C317.144 207.833 315.792 209.713 315.094 208.82C313.806 207.173 313.492 200.556 315.636 196.276C316.382 194.787 320.588 190.318 322.181 191.69V191.69Z" fill="#D9F3FF"/>
<path d="M324.639 195.487V184.987H326.128V195.332C326.128 195.418 326.173 197.443 328.226 197.896L327.978 199.02C326.614 198.719 325.827 197.894 325.405 197.046C324.992 197.92 324.199 198.789 322.794 199.098L322.546 197.974C324.4 197.564 324.615 195.872 324.639 195.485V195.487Z" fill="#D9F3FF"/>
<path d="M362.23 394.244H367.717V384.033H362.23V394.244Z" fill="#0D192B"/>
<path d="M403.372 394.244H408.859V384.033H403.372V394.244Z" fill="#0D192B"/>
<path d="M449.36 394.244H454.847V384.033H449.36V394.244Z" fill="#0D192B"/>
<path d="M450.743 400.826C453.054 400.826 454.927 397.865 454.927 394.211C454.927 390.558 453.054 387.596 450.743 387.596C448.432 387.596 446.559 390.558 446.559 394.211C446.559 397.865 448.432 400.826 450.743 400.826Z" fill="#0D192B"/>
<path d="M446.688 400.826C448.999 400.826 450.872 397.865 450.872 394.211C450.872 390.558 448.999 387.596 446.688 387.596C444.377 387.596 442.504 390.558 442.504 394.211C442.504 397.865 444.377 400.826 446.688 400.826Z" fill="#0D192B"/>
<path d="M445.074 400.292C446.815 401.65 451.681 401.036 452.361 400.333L452.391 388.129C451.085 386.986 446.479 387.025 445.076 388.065V400.292H445.074Z" fill="#0D192B"/>
<path d="M446.292 398.567C447.876 398.567 449.16 396.537 449.16 394.033C449.16 391.529 447.876 389.499 446.292 389.499C444.709 389.499 443.425 391.529 443.425 394.033C443.425 396.537 444.709 398.567 446.292 398.567Z" fill="#1E62CC"/>
<path d="M446.596 396.925C447.56 396.925 448.342 395.688 448.342 394.162C448.342 392.636 447.56 391.399 446.596 391.399C445.631 391.399 444.849 392.636 444.849 394.162C444.849 395.688 445.631 396.925 446.596 396.925Z" fill="#0D192B"/>
<path d="M406.944 400.826C409.255 400.826 411.128 397.865 411.128 394.211C411.128 390.558 409.255 387.596 406.944 387.596C404.633 387.596 402.76 390.558 402.76 394.211C402.76 397.865 404.633 400.826 406.944 400.826Z" fill="#0D192B"/>
<path d="M410.999 400.826C413.31 400.826 415.183 397.865 415.183 394.211C415.183 390.558 413.31 387.596 410.999 387.596C408.688 387.596 406.815 390.558 406.815 394.211C406.815 397.865 408.688 400.826 410.999 400.826Z" fill="#0D192B"/>
<path d="M412.613 400.292C410.872 401.65 406.006 401.036 405.326 400.333L405.296 388.129C406.602 386.986 411.208 387.025 412.611 388.065V400.292H412.613Z" fill="#0D192B"/>
<path d="M411.394 398.567C412.978 398.567 414.262 396.537 414.262 394.033C414.262 391.529 412.978 389.499 411.394 389.499C409.811 389.499 408.527 391.529 408.527 394.033C408.527 396.537 409.811 398.567 411.394 398.567Z" fill="#1E62CC"/>
<path d="M411.089 396.925C412.054 396.925 412.836 395.688 412.836 394.162C412.836 392.636 412.054 391.399 411.089 391.399C410.125 391.399 409.342 392.636 409.342 394.162C409.342 395.688 410.125 396.925 411.089 396.925Z" fill="#0D192B"/>
<path d="M365.155 400.826C367.465 400.826 369.339 397.865 369.339 394.211C369.339 390.558 367.465 387.596 365.155 387.596C362.844 387.596 360.97 390.558 360.97 394.211C360.97 397.865 362.844 400.826 365.155 400.826Z" fill="#0D192B"/>
<path d="M369.21 400.826C371.521 400.826 373.394 397.865 373.394 394.211C373.394 390.558 371.521 387.596 369.21 387.596C366.899 387.596 365.026 390.558 365.026 394.211C365.026 397.865 366.899 400.826 369.21 400.826Z" fill="#0D192B"/>
<path d="M370.822 400.292C369.081 401.65 364.215 401.036 363.535 400.333L363.504 388.129C364.811 386.986 369.417 387.025 370.82 388.065V400.292H370.822Z" fill="#0D192B"/>
<path d="M369.603 398.567C371.186 398.567 372.47 396.537 372.47 394.033C372.47 391.529 371.186 389.499 369.603 389.499C368.019 389.499 366.736 391.529 366.736 394.033C366.736 396.537 368.019 398.567 369.603 398.567Z" fill="#1E62CC"/>
<path d="M369.3 396.925C370.265 396.925 371.047 395.688 371.047 394.162C371.047 392.636 370.265 391.399 369.3 391.399C368.335 391.399 367.553 392.636 367.553 394.162C367.553 395.688 368.335 396.925 369.3 396.925Z" fill="#0D192B"/>
<path d="M401.312 382.271H409.304V299.041H401.312V382.271Z" fill="#0D192B"/>
<path d="M358.425 385.038C358.415 384.969 358.361 384.903 358.361 384.834C358.361 380.428 380.146 376.857 407.018 376.857C433.89 376.857 455.674 380.428 455.674 384.834C455.674 384.903 455.621 384.969 455.611 385.038H358.423H358.425Z" fill="#1A56B3"/>
<path d="M411.947 307.905H398.957V323.748H411.947V307.905Z" fill="#1A56B3"/>
<path d="M411.947 363.667H398.957V379.511H411.947V363.667Z" fill="#1A56B3"/>
<path d="M429.718 174.741V174.758C429.89 174.741 430.062 174.741 430.234 174.741H429.718Z" fill="#4A82DB"/>
<path d="M484.951 174.51C484.951 174.51 484.942 174.51 484.916 174.502C484.805 174.494 484.486 174.485 483.98 174.477C483.431 174.469 482.7 174.461 481.825 174.461C470.279 174.41 432.616 174.744 432.616 174.744C432.444 174.744 432.264 174.744 432.083 174.76C426.099 175.026 420.254 179.749 418.862 185.526C418.862 185.526 402.459 266.817 395.181 273.815C387.908 280.803 362.962 280.125 362.962 280.125C357.459 280.125 352.582 283.371 351.028 288.119C350.684 289.149 350.504 290.249 350.504 291.398C350.504 294.633 351.87 297.562 354.067 299.682C356.256 301.801 359.279 303.116 362.636 303.116H418.112L454.124 303.845C462.322 304.068 469.552 298.557 471.542 290.623C471.731 290.134 471.876 289.636 471.997 289.13L491.062 185.053C491.258 184.211 491.355 183.396 491.355 182.606C491.355 178.545 488.848 175.368 484.951 174.51V174.51ZM463.223 280.467L462.777 281.067L463.094 279.685H463.799L463.223 280.465V280.467Z" fill="#9EDDFF"/>
<path d="M461.151 303.153C461.161 303.204 461.21 303.255 461.21 303.307C461.21 306.618 432.577 309.303 406.956 309.303C381.336 309.303 360.565 306.618 360.565 303.307C360.565 303.255 360.614 303.204 360.624 303.153H461.151Z" fill="#1A56B3"/>
<path d="M491.355 182.606C491.355 183.396 491.26 184.211 491.062 185.053C490.343 187.136 472.538 288.688 471.542 290.621C469.55 298.557 462.322 304.069 454.122 303.845C432.802 303.157 384.367 302.985 362.632 303.116C354.884 303.276 348.57 295.565 351.026 288.119C348.351 300.745 452.391 302.291 463.287 285.745C471.036 279.945 466.752 169.748 484.946 174.512C488.846 175.372 491.353 178.549 491.353 182.608L491.355 182.606Z" fill="#61B8FF"/>
<path d="M434.655 172.642C444.861 244.494 376.687 234.107 378.661 205.185C380.361 180.269 395.439 177.355 391.51 161.018C387.197 143.085 393.581 127.396 410.581 127.396C427.582 127.396 437.191 139.526 433.636 160.62C432.931 164.805 434.223 169.175 434.658 172.642H434.655Z" fill="#0E0E0E"/>
<path d="M370.766 373.797C370.891 374.509 373.248 388.284 373.248 388.284L382.725 387.471L384.099 370.592L370.768 373.797H370.766Z" fill="#FFA599"/>
<path d="M431.055 259.418C431.055 259.418 438.983 281.694 425.878 285.512C412.773 289.329 390.849 290.777 390.849 290.777L383.769 378.898C381.145 379.943 378.332 380.873 371.784 379.537C371.784 379.537 355.654 290.83 360.307 280.197C364.96 269.562 401.353 258.75 401.353 258.75L431.053 259.418H431.055Z" fill="#0D192B"/>
<path d="M385.584 389.773C384.879 391.584 379.419 394.156 373.308 396.032C369.132 397.316 364.651 398.272 361.178 398.438C359.009 398.543 357.233 398.34 356.17 397.713C356.17 397.713 353.473 390.738 359.465 386.894C365.456 383.048 372.218 382.28 372.218 382.28C373.083 383.514 374.485 384.325 376.218 384.528C377.377 384.663 378.686 384.526 380.081 384.061C381.201 383.689 382.376 383.105 383.574 382.28C383.574 382.28 384.121 382.855 384.684 383.797C384.742 383.889 384.797 383.983 384.852 384.082C385.637 385.495 386.36 387.58 385.584 389.773V389.773Z" fill="white"/>
<path d="M385.135 383.789L384.852 384.082L373.308 396.032C369.132 397.316 364.651 398.273 361.178 398.438C360.94 396.241 361.038 391.584 365.28 388.284C367.893 386.253 372.249 385.139 376.218 384.528C377.58 384.32 378.897 384.168 380.081 384.061C382.21 383.869 383.912 383.812 384.684 383.797C384.975 383.789 385.135 383.789 385.135 383.789V383.789Z" fill="#DBF2FF"/>
<path d="M379.655 375.97C379.78 376.682 380.791 390.449 380.791 390.449L388.926 390.347L391.257 375.687L379.653 375.972L379.655 375.97Z" fill="#FFA599"/>
<path d="M390.517 381.487C390.517 381.487 393.372 387.012 394.005 388.415C390.82 397.711 369.064 404.949 366.813 402.157C366.813 402.157 362.756 395.876 367.844 390.895C372.931 385.915 380.281 383.607 380.281 383.607C382.704 385.89 389.039 385.265 390.517 381.485V381.487Z" fill="white"/>
<path d="M452.627 262.568C452.627 262.568 456.917 281.977 440.578 287.236C427.586 291.418 405.253 299.952 405.253 299.952L391.074 378.923C390.478 380.602 381.033 381.227 379.833 379.877C379.833 379.877 376.54 292.944 383.075 283.349C393.106 268.62 406.704 259.615 406.704 259.615C420.465 258.036 440.529 256.559 452.627 262.566V262.568Z" fill="#0D192B"/>
<path d="M379.511 379.89C379.356 376.394 375.8 294.146 382.802 283.175C384.623 280.324 386.812 277.449 389.315 274.631L389.796 275.059C387.318 277.852 385.147 280.699 383.345 283.523C376.452 294.324 380.118 379.009 380.154 379.863L379.511 379.892V379.89Z" fill="#2A518C"/>
<path d="M399.137 190.421C405.857 182.178 410.864 187.083 410.565 196.346C410.268 205.609 404.007 245.971 396.514 243.198C389.02 240.425 390.702 200.77 399.137 190.423V190.421Z" fill="#FFA599"/>
<path d="M404.134 226.24L399.629 257.681C400.069 259.297 402.506 260.667 406.156 261.743C406.731 261.915 407.339 262.076 407.972 262.232C420.408 265.281 443.29 265.464 453.227 261.501C453.227 261.501 452.455 256.176 449.287 247.636C446.878 241.146 443.085 232.794 437.195 223.51C436.821 220.756 439.147 215.892 441.474 210.317C445.178 201.439 448.885 190.755 441.695 183.888C429.988 172.706 399.367 175.878 397.355 197.999C397.048 212.308 404.13 226.243 404.13 226.243L404.134 226.24Z" fill="#FD5655"/>
<path d="M404.521 263.938C404.734 263.903 405.992 263.252 407.974 262.23C416.447 257.868 438.172 246.714 448.277 247.618C448.635 247.648 448.971 247.654 449.289 247.636C446.88 241.146 443.087 232.794 437.197 223.511C436.822 220.756 439.149 215.892 441.476 210.317L428.25 195.303C428.25 195.303 428.297 195.645 428.379 196.264C429.085 201.673 432.444 228.307 430.631 232.606C428.97 236.54 411.663 255.281 406.156 261.745C404.96 263.152 404.319 263.975 404.519 263.942L404.521 263.938Z" fill="#E64847"/>
<path d="M407.763 185.727C408.15 188.389 411.579 195.463 411.579 195.463C411.579 195.463 425.763 186.651 425.26 183.179L422.958 173.873L421.456 167.821L407.004 169.925L407.503 180.263L407.765 185.725L407.763 185.727Z" fill="#FFA599"/>
<path d="M407.499 180.263L417.598 173.504L407.002 169.925L407.499 180.263Z" fill="#E87C5D"/>
<path d="M394.279 151.048C393.462 163.994 400.79 174.67 410.645 174.895C420.5 175.12 428.309 164.79 428.086 151.822C427.875 139.604 420.535 130.044 411.677 129.841C402.82 129.638 395.047 138.854 394.279 151.048Z" fill="#FFA599"/>
<path d="M406.381 141.955C418.687 157.731 436.415 151.458 432.331 142.023C432.331 142.023 427.58 129.026 413.221 128.815C395.264 128.551 406.381 141.955 406.381 141.955Z" fill="#0E0E0E"/>
<path d="M409.826 160.518C409.365 160.508 408.921 160.399 408.667 160.08C408.042 159.296 409.721 155.46 410.063 154.7C410.106 154.604 410.219 154.563 410.313 154.606C410.409 154.649 410.45 154.761 410.407 154.856C409.594 156.66 408.609 159.402 408.961 159.844C409.373 160.363 410.792 160.07 411.302 159.914C411.403 159.883 411.507 159.939 411.538 160.039C411.568 160.139 411.513 160.244 411.413 160.275C411.284 160.313 410.534 160.533 409.824 160.516L409.826 160.518Z" fill="#BD4A31"/>
<path d="M407.163 164.969C407.163 164.969 412.658 166.648 419.906 162.896C415.921 168.645 410.704 172.233 407.163 164.969Z" fill="#BD4A31"/>
<path d="M418.815 153.383C418.792 154.337 418.393 155.101 417.92 155.091C417.446 155.081 417.082 154.299 417.104 153.344C417.127 152.39 417.526 151.626 417.999 151.636C418.473 151.646 418.837 152.429 418.815 153.383Z" fill="#0E0E0E"/>
<path d="M402.326 152.627C402.304 153.581 401.904 154.345 401.431 154.335C400.958 154.325 400.593 153.543 400.616 152.588C400.638 151.634 401.038 150.87 401.511 150.88C401.984 150.89 402.349 151.673 402.326 152.627Z" fill="#0E0E0E"/>
<path d="M406.301 138.973C406.301 138.973 404.116 150.975 393.958 151.769C387.163 152.302 397.048 131.897 403.516 132.295C407.331 132.528 406.301 138.971 406.301 138.971V138.973Z" fill="#0E0E0E"/>
<path d="M444.017 188.625C444.017 188.625 438.735 182.878 430.234 189.268C423.275 194.501 435.037 227.836 435.037 227.836L400.344 260.772L403.002 264.123C403.002 264.123 444.521 246.715 449.807 232.956C451.619 224.246 448.097 194.703 444.017 188.623V188.625Z" fill="#FFA599"/>
<path d="M403.756 231.189L405.64 263.75L401.161 264.499C401.161 264.499 391.472 242.151 391.912 229.53C392.297 218.468 405.101 221.112 403.756 231.189Z" fill="#FFA599"/>
<path d="M406.09 261.724C406.09 261.724 411.001 264.661 408.638 266.654C406.274 268.644 397.759 268.528 400.192 263.227C402.625 257.927 406.09 261.724 406.09 261.724V261.724Z" fill="#FFA599"/>
<path d="M400.319 260.221C399.936 260.145 391.402 266.199 393.974 268.827C396.547 271.454 409.406 263.571 406.864 260.36C404.321 257.149 400.319 260.221 400.319 260.221Z" fill="#FFA599"/>
</g>
<defs>
<clipPath id="clip0_223_20285">
<rect width="605" height="426" fill="white" transform="translate(0.5)"/>
</clipPath>
</defs>
</svg>
