<svg width="606" height="426" fill="none" xmlns="http://www.w3.org/2000/svg"><g clip-path="url(#clip0_223_20285)"><path d="M605.5 0H.5v426h605V0z" fill="#fff"/><path d="M42.554 401.416c48-64.35 16.832-121.402 1.446-197.71C6.296 82.174 153.105-15.93 299.922 79.022c91.079 58.902 176.116-.717 244.427 61.176 54.325 49.221.227 153.087-.947 199.894-.925 36.897 30.833 61.324 30.833 61.324H42.554z" fill="#EEE" fill-opacity=".5"/><path d="M603.824 403.839H1.831a1.07 1.07 0 010-2.138h601.993a1.07 1.07 0 010 2.138z" fill="#000"/><path d="M510.704 384.61c13.761 0 24.916-11.155 24.916-24.916v-33.966h-49.832v33.966c0 13.761 11.156 24.916 24.916 24.916z" fill="#00AB4E"/><path d="M535.622 404.119h2.761v-52.721h-2.761v52.721zm-52.595 0h2.761v-52.721h-2.761v52.721zm21.134 0h2.76v-52.721h-2.76v52.721z" fill="#425899"/><path d="M538.383 387.373v-2.761h-52.722v2.761h52.722z" fill="#425899"/><path d="M502.416 261.566c4.655 2.478.977 8.565 2.884 14.334 1.906 5.772 9.566 5.63 6.672 15.956-1.782 6.359-8.094 2.374-7.95 10.642.145 8.268 3.274 8.065.845 12.316-4.235 7.41-18.673 3.265-18.788-5.009-.115-8.274 6.812-11.09.961-14.938-5.852-3.848-8.193-5.599-4.342-11.102 4.768-6.812 12.159-6.605 10.09-11.922-2.068-5.316 3.468-13.555 9.624-10.279l.004.002z" fill="#62F2A4"/><path d="M499.956 325.542l-1.212.348c-8.239-28.713-.524-55.749-.447-56.017l1.211.354c-.078.267-7.686 26.966.448 55.315z" fill="#425899"/><path d="M564.194 255.541c3.434 6.167-5.12 10.34-7.166 18.213-2.046 7.872 7.123 10.138-3.627 19.646-6.621 5.858-8.247 2.497-10.144 14.926-1.669 10.943-10.432 1.071-16.251 7.746-7.508 8.612-20.848-8.731-14.969-18.119 5.88-9.388 13.417-7.434 9.63-16.009-3.787-8.577-.162-15.377 8.165-18.768 10.306-4.198 14.541 4.416 16.077-3.066 1.536-7.479 13.74-12.724 18.285-4.569z" fill="#62F2A4"/><path d="M514.978 325.693c11.442-37.806 39.379-62.283 39.66-62.525l-1.104-1.278c-.285.246-28.588 25.045-40.172 63.314l1.616.489z" fill="#425899"/><path d="M90.707 161.65c.512 3.103 2.236 5.917 4.603 7.947 2.368 2.029 5.389 3.293 8.491 3.293h29.113c4.102 0 7.328-2.204 8.747-5.487.727-1.683.981-3.647.635-5.751-.512-3.102-2.237-5.916-4.596-7.946-2.376-2.03-5.388-3.293-8.491-3.293h-29.112c-1.436 0-2.765.272-3.945.76-3.928 1.634-6.23 5.71-5.445 10.479v-.002z" fill="#61B8FF"/><path d="M131.441 184.189a1.645 1.645 0 001.565-2.149l-3.91-12.132a1.645 1.645 0 00-3.129 1.01l3.909 12.132c.22.68.85 1.139 1.565 1.139zm-19.278 0a1.645 1.645 0 001.565-2.149l-3.91-12.132a1.641 1.641 0 00-1.564-1.139 1.645 1.645 0 00-1.565 2.149l3.91 12.132c.219.68.85 1.139 1.564 1.139z" fill="#123E80"/><path d="M95.528 156.907c.511 3.103 2.236 5.917 4.603 7.955 2.368 2.029 5.389 3.293 8.491 3.293h29.113c1.427 0 2.748-.264 3.928-.752.727-1.683.981-3.647.635-5.751-.512-3.102-2.237-5.916-4.596-7.946-2.376-2.03-5.388-3.293-8.491-3.293h-29.112c-1.436 0-2.765.272-3.945.76-.719 1.683-.973 3.639-.626 5.734z" fill="#9EDDFF"/><path d="M219.743 385.99h-5.487v10.212h5.487V385.99zm-41.145 0h-5.486v10.212h5.486V385.99zm-45.987 0h-5.487v10.212h5.487V385.99z" fill="#0D192B"/><path d="M131.23 402.784c2.311 0 4.184-2.962 4.184-6.615 0-3.654-1.873-6.615-4.184-6.615-2.31 0-4.184 2.961-4.184 6.615 0 3.653 1.874 6.615 4.184 6.615z" fill="#0D192B"/><path d="M135.285 402.784c2.311 0 4.184-2.962 4.184-6.615 0-3.654-1.873-6.615-4.184-6.615-2.31 0-4.184 2.961-4.184 6.615 0 3.653 1.874 6.615 4.184 6.615z" fill="#0D192B"/><path d="M136.897 402.249c-1.741 1.358-6.607.744-7.287.041l-.03-12.204c1.306-1.143 5.912-1.104 7.315-.063v12.226h.002z" fill="#0D192B"/><path d="M135.679 400.523c1.583 0 2.867-2.03 2.867-4.534 0-2.505-1.284-4.535-2.867-4.535-1.584 0-2.868 2.03-2.868 4.535 0 2.504 1.284 4.534 2.868 4.534z" fill="#1E62CC"/><path d="M135.375 398.882c.965 0 1.747-1.236 1.747-2.762s-.782-2.763-1.747-2.763c-.964 0-1.746 1.237-1.746 2.763 0 1.526.782 2.762 1.746 2.762zm39.652 3.902c2.311 0 4.184-2.962 4.184-6.615 0-3.654-1.873-6.615-4.184-6.615s-4.184 2.961-4.184 6.615c0 3.653 1.873 6.615 4.184 6.615z" fill="#0D192B"/><path d="M170.974 402.784c2.311 0 4.184-2.962 4.184-6.615 0-3.654-1.873-6.615-4.184-6.615s-4.184 2.961-4.184 6.615c0 3.653 1.873 6.615 4.184 6.615z" fill="#0D192B"/><path d="M169.36 402.249c1.741 1.358 6.607.744 7.287.041l.03-12.204c-1.306-1.143-5.912-1.104-7.315-.063v12.226h-.002z" fill="#0D192B"/><path d="M170.579 400.523c1.583 0 2.867-2.03 2.867-4.534 0-2.505-1.284-4.535-2.867-4.535-1.584 0-2.868 2.03-2.868 4.535 0 2.504 1.284 4.534 2.868 4.534z" fill="#1E62CC"/><path d="M170.882 398.882c.964 0 1.747-1.236 1.747-2.762s-.783-2.763-1.747-2.763c-.965 0-1.747 1.237-1.747 2.763 0 1.526.782 2.762 1.747 2.762zm45.936 3.902c2.311 0 4.184-2.962 4.184-6.615 0-3.654-1.873-6.615-4.184-6.615s-4.184 2.961-4.184 6.615c0 3.653 1.873 6.615 4.184 6.615z" fill="#0D192B"/><path d="M212.763 402.784c2.311 0 4.184-2.962 4.184-6.615 0-3.654-1.873-6.615-4.184-6.615s-4.184 2.961-4.184 6.615c0 3.653 1.873 6.615 4.184 6.615z" fill="#0D192B"/><path d="M211.149 402.249c1.741 1.358 6.607.744 7.287.041l.031-12.204c-1.307-1.143-5.913-1.104-7.316-.063v12.226h-.002z" fill="#0D192B"/><path d="M212.368 400.523c1.584 0 2.867-2.03 2.867-4.534 0-2.505-1.283-4.535-2.867-4.535s-2.867 2.03-2.867 4.535c0 2.504 1.283 4.534 2.867 4.534z" fill="#1E62CC"/><path d="M212.671 398.882c.965 0 1.747-1.236 1.747-2.762s-.782-2.763-1.747-2.763c-.965 0-1.747 1.237-1.747 2.763 0 1.526.782 2.762 1.747 2.762zm-32.012-97.884h-7.992v83.231h7.992v-83.231z" fill="#0D192B"/><path d="M223.548 386.996c.01-.07.063-.135.063-.205 0-4.405-21.784-7.977-48.656-7.977s-48.656 3.572-48.656 7.977c0 .07.053.135.063.205h97.188-.002zm-53.524-61.293h12.99V309.86h-12.99v15.843z" fill="#1A56B3"/><path d="M170.024 381.466h12.99v-15.843h-12.99v15.843z" fill="#1A56B3"/><path d="M152.253 176.697v.016c-.172-.016-.344-.016-.516-.016h.516z" fill="#4A82DB"/><path d="M90.618 184.561c0 .791.095 1.606.293 2.448l26.927 104.077c.121.506.267 1.004.455 1.493 1.993 7.932 9.22 13.445 17.418 13.222l28.15-.729h55.476c3.357 0 6.38-1.313 8.569-3.435 2.198-2.119 3.564-5.048 3.564-8.284a10.31 10.31 0 00-.525-3.279c-1.554-4.747-6.43-7.993-11.933-7.993 0 0-24.949.678-32.22-6.31-7.28-6.996-23.681-88.289-23.681-88.289-1.39-5.778-7.237-10.5-13.221-10.767-.181-.016-.361-.016-.533-.016 0 0-37.663-.334-49.209-.283-.877 0-1.606.009-2.155.017-.506.008-.823.016-.936.024-.026.009-.035.009-.035.009-3.897.858-6.404 4.034-6.404 8.095zm35.419 97.082h.704l.317 1.382-.446-.6-.575-.78v-.002z" fill="#9EDDFF"/><path d="M128.683 305.109c-.011.051-.06.102-.06.153 0 3.312 20.771 5.997 46.391 5.997 25.621 0 46.392-2.685 46.392-5.997 0-.051-.049-.102-.06-.153h-92.663z" fill="#1A56B3"/><path d="M90.618 184.561c0 .791.095 1.606.293 2.448l26.927 104.077c.121.506.267 1.004.455 1.493 1.993 7.932 9.22 13.445 17.418 13.222l28.15-.729h55.476c3.357 0 6.38-1.313 8.569-3.435 2.198-2.119 3.564-5.048 3.564-8.284 0-1.151-.181-2.248-.525-3.279-3.176 8.264-95.901 8.846-102.348-1.855-6.302-5.468-19.786-98.607-28.449-111.802-.877 0-1.606.008-2.155.016-.506.008-.823.016-.936.024-.026.009-.035.009-.035.009-3.897.858-6.404 4.034-6.404 8.095z" fill="#61B8FF"/><path d="M137.43 189.749c8.564-6.382 37.957-11.338 56.768-2.519 2.988 2.83 7.289 13.105 9.976 22.761l7.432 80.606h-63.594L137.43 189.749z" fill="#AAE0FF"/><path d="M174.261 193.706l-1.004 3.619 7.164 44.887-3.783 7.293-6.744-7.237 1.115-44.888-1.627-2.396 1.901-2.722 2.978 1.444z" fill="#838383"/><path d="M178.553 180.656c-.139 5.331-4.3 8.358-7.284 11.395-8.85-2.31-15.561-7.731-17.523-12.753l-4.174 4.145c.744 6.482 5.937 13.181 13.834 20.015 1.205-3.477 3.054-6.674 8.315-9.549l11.842 3.371c.669-4.606 1.192-8.899-1.499-14.312l-3.509-2.31-.002-.002z" fill="#61B8FF"/><path d="M244.134 402.272c4.227 0 4.227-6.873 0-6.873 0 0-16.82-4.694-17.309-4.694-.49 0-18.453.504-18.453.504-2.371 3.291-1.581 7.936-1.331 11.512l37.093-.447v-.002zm-95.719.133c-.311-3.559-.817-7.352 1.64-10.588 4.189-1.54 12.108-5.099 20.265-.498 0 0 .158 2.3 6.484 4.915 1.573 1.786 2.206 3.584 1.489 6.171h-29.878z" fill="#73382A"/><path d="M207.696 390.703l17.742-91.2-52.373-8.878v-25.006l40.304.029c-1.796 0 38.425-2.78 44.059 19.056 5.634 21.836-28.516 105.73-28.516 105.73-4.879-.669-16.114 2.714-20.304 4.029-3.582 1.124-4.565-.914-.912-3.76z" fill="#0D192B"/><path d="M204.467 265.648l-39.476 32.229 3.257 93.26c-10.414-5.745-21.824 5.208-22.7 3.949 0 0-1.262-.605.833-5.596-3.993-20.076-18.551-95.328-14.018-103.696 5.236-9.667 14.02-20.713 14.02-20.713l58.082.567h.002z" fill="#0D192B"/><path d="M150.649 182.395c.604 2.416 7.742 74.074 7.138 84.951-.605 10.876-27.102 13.266-26.585 35.649.546 23.773 1.265 34.073 1.265 34.073-9.82-1.438-15.089-12.933-16.527-20.839-2.255-13.723-.641-29.325 9.58-49.101 0 0 2.73-74.819 6.132-77.242 6.07-4.319 18.997-7.491 18.997-7.491z" fill="#fff"/><path d="M145.329 214.579s-3.4 9.925-3.4 14.037 19.904 12.753 19.904 12.753h-32.516v-15.387l16.012-11.405v.002z" fill="#D9F1FF"/><path d="M163.384 244.449s3.901-3.525 10.086-4.014c6.185-.492 11.61 11.28 11.61 11.28h-21.403l-.295-7.266h.002z" fill="#F7B28A"/><path d="M175.113 240.58s9.734 2.753 11.092 3.113c.635 2.568-6.064 1.461-9.163.318-3.414-1.258-1.929-3.433-1.929-3.433v.002z" fill="#F7B28A"/><path d="M132.416 189.139c-5.945 3.686-22.327 42.316-22.483 52.711-.07 4.586 1.854 9.128 10.562 9.687 4.808.31 45.627.66 45.627.66l-.52-10.828-30.767-8.782 9.398-15.595c11.241-5.786 1.614-35.025-11.817-27.851v-.002z" fill="#fff"/><path d="M238.085 188.969s-3.769-9.22-3.306-11.733c.463-2.513 9.73-5.759 10.189-4.645.459 1.116 1.421 3.866-4.645 5.521 4.065 3.746 8.628 11.211-2.238 10.855v.002z" fill="#F7A594"/><path d="M237.595 189.387s-.77-8.315.58-11.662c1.796-4.456 7.102-7.321 7.102-7.321s9.384 7.364 9.671 8.695c.287 1.332-7.531 9.487-7.531 9.487s-5.824 5.531-9.822.801z" fill="#F7A594"/><path d="M238.707 178.479s2.294-20.746 5.565-20.144c1.507.278-.615 20.088-.615 20.088l-4.948.056h-.002z" fill="#F7A594"/><path d="M237.032 186.353a.11.11 0 00.135-.143c-.966-2.714-2.548-7.483-2.277-8.952.356-1.937 6.426-4.485 9.044-4.757.78-.082.911.082.932.135.303.735.548 1.616.084 2.562-.582 1.179-2.149 2.126-4.656 2.81l-.194.053.147.135c1.688 1.555 3.705 4.002 4.305 6.203a.11.11 0 00.137.078.11.11 0 00.078-.137c-.594-2.183-2.543-4.594-4.223-6.173 2.46-.698 4.008-1.665 4.604-2.873.574-1.163.117-2.271-.076-2.744-.104-.254-.483-.342-1.161-.273-2.654.277-8.855 2.845-9.24 4.938-.281 1.52 1.312 6.335 2.287 9.069a.115.115 0 00.074.069z" fill="#E6836F"/><path d="M248.312 182.415l.095.025.075.018.041-.068c1.332-2.101 4.51-2.949 4.543-2.957a.111.111 0 00-.055-.215c-.134.035-3.228.86-4.631 2.986h-.01c-1.995-.577-4.797-5.292-4.825-5.341a.11.11 0 10-.191.113c.119.2 2.878 4.839 4.958 5.439z" fill="#E6836F"/><path d="M237.956 186.72l-3.396 12.952 10.474 3.36 1.282-14.788-8.36-1.524z" fill="#F7A594"/><path d="M205.853 193.065l21.416 21.514 9.527-24.738 12.464 3.924s-.151 36.151-10.967 43.938c-16.562 10.117-44.941-20.755-44.941-20.755-11.1-15.521 5.862-32.886 12.501-23.883z" fill="#fff"/><path d="M182.193 183.287s5.722 78.598 15.992 85.244c10.273 6.646 46.572 2.12 46.572 2.12s-36.217-12.976-36.821-22.643c-.604-9.668-2.943-55.748-2.943-55.748-3.363-4.129-14.035-9.02-22.8-8.973z" fill="#fff"/><path d="M185.199 215.656a.53.53 0 00.529-.514c.004-.121.299-12.196-1.493-24.838-1.661-11.704-11.41-17.371-19.764-17.682-8.1-.304-14.346 4.124-15.911 11.274-1.407 6.437.416 17.416.494 17.881a.528.528 0 001.04-.176c-.018-.113-1.868-11.244-.504-17.48 1.45-6.627 7.281-10.725 14.838-10.445 7.93.295 17.183 5.671 18.758 16.775 1.78 12.553 1.487 24.544 1.485 24.663a.53.53 0 00.514.542h.014z" fill="#0D192B"/><path d="M187.165 220.809c.617-3.342-.409-6.332-2.292-6.68-1.883-.348-3.91 2.079-4.527 5.421-.617 3.341.41 6.331 2.293 6.679 1.883.348 3.91-2.079 4.526-5.42z" fill="#1B658F"/><path d="M183.892 219.963c-.401 2.177.269 4.125 1.496 4.352 1.226.227 2.547-1.354 2.949-3.531.401-2.177-.269-4.124-1.495-4.352-1.227-.227-2.548 1.354-2.95 3.531z" fill="#2997D6"/><path d="M144.497 232.005l3.353-.43a.529.529 0 00-.136-1.048l-2.537.325c-3.445-8.919-3.643-18.499-.457-23.413 1.571-2.422 3.889-3.717 6.892-3.842 2.814-.12 5.292.811 7.373 2.763 6.332 5.939 7.352 19.641 7.499 22.581l-1.921-.073a.523.523 0 00-.546.508.526.526 0 00.507.546l3.052.117-.012-.561c-.015-.688-.453-16.943-7.854-23.888-2.296-2.154-5.034-3.18-8.141-3.047-3.363.141-5.964 1.595-7.733 4.323-1.772 2.732-2.608 6.668-2.419 11.381.172 4.311 1.214 9.062 2.928 13.379l.152.381v-.002z" fill="#0D192B"/><path d="M153.676 201.844l-.028 2.606s-2.958-1.172-5.911.741c-.756-1.045-1.288-1.831-1.288-1.831s2.363-2.558 7.229-1.516h-.002z" fill="#1B658F"/><path d="M151.46 202.762l-.569-2.965c-.825-.451-2.595.028-2.865.671l.655 2.886 2.779-.592z" fill="#1B658F"/><path d="M171.09 190.765c-10.111 1.471-16.399-5.584-17.877-8.536l4.069-25.262 8.227 3.672c3.363.279 6.723 1.084 9.613 2.227l2.609 13.471.576 2.923c1.313 2.875 2.894 10.033-7.217 11.505z" fill="#F7A594"/><path d="M159.914 163.384c.329 3.125 4.442 15.792 18.094 14.475l-2.534-13.177-15.56-1.298z" fill="#E6836F"/><path d="M191.695 147.6c-.467 4.106-1.606 13.078-3.189 16.832-2.408 5.714-9.861 10.341-14.727 9.554-5.489-1.335-12.073-5.542-14.775-10.41-1.263-3.414-3.319-11.174-3.385-17.346-.137-12.874 11.002-20.128 21.609-18.926 10.606 1.202 15.925 7.496 14.467 20.296z" fill="#F7A594"/><path d="M156.428 154.973c-.825-4.504 2.542-5.038 4.637-1.035.457-3.02.117-12.46 3.942-14.217 4.35-2.07 18.1 4.281 28.527-1.03 0 0-1.348-14.485-22.629-13.621-25.036 3.844-14.477 29.903-14.477 29.903z" fill="#73382A"/><path d="M158.128 158.324c2.025-.631 3.003-3.269 2.185-5.892-.818-2.623-3.122-4.237-5.147-3.606-2.025.631-3.003 3.269-2.185 5.892.818 2.623 3.122 4.238 5.147 3.606z" fill="#F7A594"/><path d="M183.677 164.75c-.815.149-2.251.829-3.67 1.581a83.733 83.733 0 00-4.078 2.337s-6.093-3.685-5.925-9.597c.082.09.166.178.252.266 4.733 4.878 13.421 5.415 13.421 5.415v-.002z" fill="#A65B4A"/><path d="M183.677 164.75c-.815.149-2.251.829-3.67 1.581-6.177-1.415-8.717-4.735-9.751-6.994 4.733 4.878 13.421 5.415 13.421 5.415v-.002z" fill="#fff"/><path d="M183.351 161.885c-1.237-.076-2.204-.795-2.218-.805a.252.252 0 01.303-.402c.082.062 2.015 1.491 3.769.138.962-.744.712-1.242.041-2.571-.635-1.259-1.598-3.164-1.93-6.402a.251.251 0 01.226-.276.251.251 0 01.276.225c.324 3.146 1.26 4.999 1.878 6.226.692 1.37 1.108 2.198-.184 3.195a3.134 3.134 0 01-2.163.67l.002.002z" fill="#A65B4A"/><path d="M176.634 149.459c-.058.949-.529 1.69-1.051 1.657-.522-.033-.899-.825-.84-1.773.06-.949.529-1.69 1.051-1.657.522.033.899.827.84 1.773zm13.246.621c-.053.862-.481 1.54-.958 1.509-.475-.028-.817-.753-.764-1.616.053-.862.481-1.54.956-1.509.475.029.817.754.764 1.616h.002z" fill="#1E1E1E"/><path d="M190.839 139.367s10.44-1.018 7.178-11.205c-3.234 3.289-6.523 1.682-6.523 1.682s3.836-4.807-2.507-11.844c-1.011 4.389-9.722 6.32-14.706 5.026-7.896-2.048-15.887.778-16.735 8.397 0 0-5.167 1.259-3.367 11.528 7.977-.281 11.508-7.553 17.392-8.608 5.884-1.053 10.889 6.207 19.268 5.022v.002z" fill="#73382A"/><path d="M180.756 172.399s-3.725.875-5.773.825c-2.703-.063-6.978-1.56-6.978-1.56l7.097 3.795 5.656-3.062-.002.002z" fill="#A65B4A"/><path d="M193.858 241.436c3.441-.35 10.674-4.845 12.401-6.332l21.01 16.99h-32.553l-.858-10.658z" fill="#2B7EAB"/><path d="M224.197 252.145c-.883 0-27.191-16.05-27.191-16.05-5.784 4.782-11.834 7.109-17.951 8.827 1.788 3.551 4.405 5.943 7.324 7.275l37.818-.054v.002z" fill="#69BFF0"/><path d="M93.348 252.084h32.461v-5.044h-32.46v5.044z" fill="#BAE7FF"/><path d="M65.713 252.084h27.635v-5.044H65.713v5.044zm55.709-3.4h-25.99l12.062 2.413 13.928-2.413z" fill="#69BFF0"/><path d="M108.821 258.273h-5.454V401.31h5.454V258.273z" fill="#838383"/><path d="M108.821 258.33h-5.454v12.28h5.454v-12.28zm241.545 143.576h5.456v-24.835h-5.456v24.835zm-32.829 0h5.456v-24.835h-5.456v24.835zM57.244 256.743v145.365l-5.187-.821V256.743h5.187zm191.908 145.163h5.456v-24.835h-5.456v24.835zm28.639 0h5.456v-24.835h-5.456v24.835z" fill="#838383"/><path d="M37.143 258.261H300.49v-6.146H37.143v6.146z" fill="#838383"/><path d="M280.869 257.734h-33.708v119.731h33.708V257.734z" fill="#838383"/><path d="M359.111 257.734H276.19v119.731h82.921V257.734z" fill="#838383"/><path d="M356.858 261.89h-76.542v115.577h76.542V261.89zm-260.972-3.629h263.346v-6.146H95.886v6.146z" fill="#C2C2C2"/><path d="M312.83 252.117h14.529l-2.863-24.845h-14.531l2.865 24.845z" fill="#ADADAD"/><path d="M308.603 227.272l.011.101 1.548 13.42 1.305 11.322h14.53l-2.662-23.098-.008-.069-.193-1.676h-14.531z" fill="#474747"/><path d="M291.712 252.07h46.151v-2.544h-46.151v2.544z" fill="#ADADAD"/><path d="M325.422 249.524h-36.934v2.544h36.934v-2.544z" fill="#474747"/><path d="M308.614 227.373l1.548 13.42 13.173-11.776.068-.059-.076-.01-14.713-1.575z" fill="#2B2B2B"/><path d="M271.6 228.87h78.84c1.718 0 3.224-1.393 3.365-3.109l4.503-54.762c.142-1.718-1.136-3.108-2.852-3.108h-78.84c-1.719 0-3.224 1.392-3.365 3.108l-4.504 54.762c-.141 1.718 1.137 3.109 2.853 3.109z" fill="#ADADAD"/><path d="M270.138 228.8h78.84c1.718 0 3.223-1.392 3.364-3.109l4.504-54.761c.141-1.718-1.137-3.109-2.853-3.109h-78.84c-1.718 0-3.223 1.393-3.364 3.109l-4.504 54.761c-.141 1.719 1.137 3.109 2.853 3.109z" fill="#474747"/><path d="M271.87 224.321h76.551l4.169-52.23h-76.55l-4.17 52.23z" fill="#D9F3FF"/><path d="M278.115 249.524h-24.132v2.546h24.132v-2.546z" fill="#ADADAD"/><path d="M228.74 251.091v.979h25.243v-2.546l-25.243 1.567z" fill="#474747"/><path d="M285.406 215.275l52.488-.635c2.206-.026 4.129-1.894 4.294-4.171l1.956-26.862c.166-2.277-1.489-4.102-3.694-4.075l-52.488.634c-2.206.027-4.129 1.895-4.295 4.172l-1.956 26.862c-.166 2.277 1.489 4.102 3.695 4.075z" fill="#80B2FF"/><path d="M289.948 191.324l15.415-.186c.486-.006.91-.418.946-.918.037-.502-.327-.903-.813-.897l-15.415.186c-.485.007-.909.418-.946.918-.037.502.328.903.813.897zm-.362 4.958l20.537-.248c.485-.006.909-.418.946-.917.037-.502-.328-.903-.813-.897l-20.537.248c-.486.006-.91.417-.946.917-.037.502.327.903.813.897zm-.424 5.841l20.537-.248c.486-.006.909-.418.946-.917.037-.502-.327-.904-.813-.897l-20.537.247c-.486.007-.909.418-.946.918-.037.502.327.903.813.897zm-.426 5.839l20.537-.248c.486-.006.909-.418.946-.918.037-.501-.327-.903-.813-.897l-20.537.248c-.486.006-.909.418-.946.918-.037.501.327.903.813.897zm40.085-16.272c-1.593 1.372-2.714 11.289-.645 14.072.948 1.274 2.583 1.288 4.002 1.647 1.681.424 3.033 2.304 3.731 1.411 1.289-1.647 1.602-8.264-.542-12.544-.746-1.489-4.953-5.958-6.546-4.586zm-6.64 0c1.594 1.372 2.714 11.289.646 14.072-.949 1.274-2.583 1.288-4.002 1.647-1.681.424-3.033 2.304-3.731 1.411-1.288-1.647-1.602-8.264.542-12.544.746-1.489 4.952-5.958 6.545-4.586z" fill="#D9F3FF"/><path d="M324.639 195.487v-10.5h1.489v10.345c0 .086.045 2.111 2.098 2.564l-.248 1.124c-1.364-.301-2.151-1.126-2.573-1.974-.413.874-1.206 1.743-2.611 2.052l-.248-1.124c1.854-.41 2.069-2.102 2.093-2.489v.002z" fill="#D9F3FF"/><path d="M362.23 394.244h5.487v-10.211h-5.487v10.211zm41.142 0h5.487v-10.211h-5.487v10.211zm45.988 0h5.487v-10.211h-5.487v10.211z" fill="#0D192B"/><path d="M450.743 400.826c2.311 0 4.184-2.961 4.184-6.615 0-3.653-1.873-6.615-4.184-6.615s-4.184 2.962-4.184 6.615c0 3.654 1.873 6.615 4.184 6.615z" fill="#0D192B"/><path d="M446.688 400.826c2.311 0 4.184-2.961 4.184-6.615 0-3.653-1.873-6.615-4.184-6.615s-4.184 2.962-4.184 6.615c0 3.654 1.873 6.615 4.184 6.615z" fill="#0D192B"/><path d="M445.074 400.292c1.741 1.358 6.607.744 7.287.041l.03-12.204c-1.306-1.143-5.912-1.104-7.315-.064v12.227h-.002z" fill="#0D192B"/><path d="M446.292 398.567c1.584 0 2.868-2.03 2.868-4.534s-1.284-4.534-2.868-4.534c-1.583 0-2.867 2.03-2.867 4.534s1.284 4.534 2.867 4.534z" fill="#1E62CC"/><path d="M446.596 396.925c.964 0 1.746-1.237 1.746-2.763 0-1.526-.782-2.763-1.746-2.763-.965 0-1.747 1.237-1.747 2.763 0 1.526.782 2.763 1.747 2.763zm-39.652 3.901c2.311 0 4.184-2.961 4.184-6.615 0-3.653-1.873-6.615-4.184-6.615s-4.184 2.962-4.184 6.615c0 3.654 1.873 6.615 4.184 6.615z" fill="#0D192B"/><path d="M410.999 400.826c2.311 0 4.184-2.961 4.184-6.615 0-3.653-1.873-6.615-4.184-6.615s-4.184 2.962-4.184 6.615c0 3.654 1.873 6.615 4.184 6.615z" fill="#0D192B"/><path d="M412.613 400.292c-1.741 1.358-6.607.744-7.287.041l-.03-12.204c1.306-1.143 5.912-1.104 7.315-.064v12.227h.002z" fill="#0D192B"/><path d="M411.394 398.567c1.584 0 2.868-2.03 2.868-4.534s-1.284-4.534-2.868-4.534c-1.583 0-2.867 2.03-2.867 4.534s1.284 4.534 2.867 4.534z" fill="#1E62CC"/><path d="M411.089 396.925c.965 0 1.747-1.237 1.747-2.763 0-1.526-.782-2.763-1.747-2.763-.964 0-1.747 1.237-1.747 2.763 0 1.526.783 2.763 1.747 2.763zm-45.934 3.901c2.31 0 4.184-2.961 4.184-6.615 0-3.653-1.874-6.615-4.184-6.615-2.311 0-4.185 2.962-4.185 6.615 0 3.654 1.874 6.615 4.185 6.615z" fill="#0D192B"/><path d="M369.21 400.826c2.311 0 4.184-2.961 4.184-6.615 0-3.653-1.873-6.615-4.184-6.615s-4.184 2.962-4.184 6.615c0 3.654 1.873 6.615 4.184 6.615z" fill="#0D192B"/><path d="M370.822 400.292c-1.741 1.358-6.607.744-7.287.041l-.031-12.204c1.307-1.143 5.913-1.104 7.316-.064v12.227h.002z" fill="#0D192B"/><path d="M369.603 398.567c1.583 0 2.867-2.03 2.867-4.534s-1.284-4.534-2.867-4.534c-1.584 0-2.867 2.03-2.867 4.534s1.283 4.534 2.867 4.534z" fill="#1E62CC"/><path d="M369.3 396.925c.965 0 1.747-1.237 1.747-2.763 0-1.526-.782-2.763-1.747-2.763-.965 0-1.747 1.237-1.747 2.763 0 1.526.782 2.763 1.747 2.763zm32.012-14.654h7.992v-83.23h-7.992v83.23z" fill="#0D192B"/><path d="M358.425 385.038c-.01-.069-.064-.135-.064-.204 0-4.406 21.785-7.977 48.657-7.977 26.872 0 48.656 3.571 48.656 7.977 0 .069-.053.135-.063.204h-97.188.002zm53.522-77.133h-12.99v15.843h12.99v-15.843z" fill="#1A56B3"/><path d="M411.947 363.667h-12.99v15.844h12.99v-15.844z" fill="#1A56B3"/><path d="M429.718 174.741v.017c.172-.017.344-.017.516-.017h-.516z" fill="#4A82DB"/><path d="M484.951 174.51s-.009 0-.035-.008a24.94 24.94 0 00-.936-.025c-.549-.008-1.28-.016-2.155-.016-11.546-.051-49.209.283-49.209.283-.172 0-.352 0-.533.016-5.984.266-11.829 4.989-13.221 10.766 0 0-16.403 81.291-23.681 88.289-7.273 6.988-32.219 6.31-32.219 6.31-5.503 0-10.38 3.246-11.934 7.994a10.318 10.318 0 00-.524 3.279c0 3.235 1.366 6.164 3.563 8.284 2.189 2.119 5.212 3.434 8.569 3.434h55.476l36.012.729c8.198.223 15.428-5.288 17.418-13.222.189-.489.334-.987.455-1.493l19.065-104.077c.196-.842.293-1.657.293-2.447 0-4.061-2.507-7.238-6.404-8.096zm-21.728 105.957l-.446.6.317-1.382h.705l-.576.78v.002z" fill="#9EDDFF"/><path d="M461.151 303.153c.01.051.059.102.059.154 0 3.311-28.633 5.996-54.254 5.996-25.62 0-46.391-2.685-46.391-5.996 0-.052.049-.103.059-.154h100.527z" fill="#1A56B3"/><path d="M491.355 182.606c0 .79-.095 1.605-.293 2.447-.719 2.083-18.524 103.635-19.52 105.568-1.992 7.936-9.22 13.448-17.42 13.224-21.32-.688-69.755-.86-91.49-.729-7.748.16-14.062-7.551-11.606-14.997-2.675 12.626 101.365 14.172 112.261-2.374 7.749-5.8 3.465-115.997 21.659-111.233 3.9.86 6.407 4.037 6.407 8.096l.002-.002z" fill="#61B8FF"/><path d="M434.655 172.642c10.206 71.852-57.968 61.465-55.994 32.543 1.7-24.916 16.778-27.83 12.849-44.167-4.313-17.933 2.071-33.622 19.071-33.622 17.001 0 26.61 12.13 23.055 33.224-.705 4.185.587 8.555 1.022 12.022h-.003z" fill="#0E0E0E"/><path d="M370.766 373.797c.125.712 2.482 14.487 2.482 14.487l9.477-.813 1.374-16.879-13.331 3.205h-.002z" fill="#FFA599"/><path d="M431.055 259.418s7.928 22.276-5.177 26.094c-13.105 3.817-35.029 5.265-35.029 5.265l-7.08 88.121c-2.624 1.045-5.437 1.975-11.985.639 0 0-16.13-88.707-11.477-99.34 4.653-10.635 41.046-21.447 41.046-21.447l29.7.668h.002z" fill="#0D192B"/><path d="M385.584 389.773c-.705 1.811-6.165 4.383-12.276 6.259-4.176 1.284-8.657 2.24-12.13 2.406-2.169.105-3.945-.098-5.008-.725 0 0-2.697-6.975 3.295-10.819 5.991-3.846 12.753-4.614 12.753-4.614.865 1.234 2.267 2.045 4 2.248 1.159.135 2.468-.002 3.863-.467 1.12-.372 2.295-.956 3.493-1.781 0 0 .547.575 1.11 1.517.058.092.113.186.168.285.785 1.413 1.508 3.498.732 5.691z" fill="#fff"/><path d="M385.135 383.789l-.283.293-11.544 11.95c-4.176 1.284-8.657 2.241-12.13 2.406-.238-2.197-.14-6.854 4.102-10.154 2.613-2.031 6.969-3.145 10.938-3.756a68.06 68.06 0 018.466-.731c.291-.008.451-.008.451-.008z" fill="#DBF2FF"/><path d="M379.655 375.97c.125.712 1.136 14.479 1.136 14.479l8.135-.102 2.331-14.66-11.604.285.002-.002z" fill="#FFA599"/><path d="M390.517 381.487s2.855 5.525 3.488 6.928c-3.185 9.296-24.941 16.534-27.192 13.742 0 0-4.057-6.281 1.031-11.262 5.087-4.98 12.437-7.288 12.437-7.288 2.423 2.283 8.758 1.658 10.236-2.122v.002z" fill="#fff"/><path d="M452.627 262.568s4.29 19.409-12.049 24.668c-12.992 4.182-35.325 12.716-35.325 12.716l-14.179 78.971c-.596 1.679-10.041 2.304-11.241.954 0 0-3.293-86.933 3.242-96.528 10.031-14.729 23.629-23.734 23.629-23.734 13.761-1.579 33.825-3.056 45.923 2.951v.002z" fill="#0D192B"/><path d="M379.511 379.89c-.155-3.496-3.711-85.744 3.291-96.715 1.821-2.851 4.01-5.726 6.513-8.544l.481.428c-2.478 2.793-4.649 5.64-6.451 8.464-6.893 10.801-3.227 95.486-3.191 96.34l-.643.029v-.002z" fill="#2A518C"/><path d="M399.137 190.421c6.72-8.243 11.727-3.338 11.428 5.925-.297 9.263-6.558 49.625-14.051 46.852-7.494-2.773-5.812-42.428 2.623-52.775v-.002z" fill="#FFA599"/><path d="M404.134 226.24l-4.505 31.441c.44 1.616 2.877 2.986 6.527 4.062.575.172 1.183.333 1.816.489 12.436 3.049 35.318 3.232 45.255-.731 0 0-.772-5.325-3.94-13.865-2.409-6.49-6.202-14.842-12.092-24.126-.374-2.754 1.952-7.618 4.279-13.193 3.704-8.878 7.411-19.562.221-26.429-11.707-11.182-42.328-8.01-44.34 14.111-.307 14.309 6.775 28.244 6.775 28.244l.004-.003z" fill="#FD5655"/><path d="M404.521 263.938c.213-.035 1.471-.686 3.453-1.708 8.473-4.362 30.198-15.516 40.303-14.612.358.03.694.036 1.012.018-2.409-6.49-6.202-14.842-12.092-24.125-.375-2.755 1.952-7.619 4.279-13.194l-13.226-15.014s.047.342.129.961c.706 5.409 4.065 32.043 2.252 36.342-1.661 3.934-18.968 22.675-24.475 29.139-1.196 1.407-1.837 2.23-1.637 2.197l.002-.004z" fill="#E64847"/><path d="M407.763 185.727c.387 2.662 3.816 9.736 3.816 9.736s14.184-8.812 13.681-12.284l-2.302-9.306-1.502-6.052-14.452 2.104.499 10.338.262 5.462-.002.002z" fill="#FFA599"/><path d="M407.499 180.263l10.099-6.759-10.596-3.579.497 10.338z" fill="#E87C5D"/><path d="M394.279 151.048c-.817 12.946 6.511 23.622 16.366 23.847 9.855.225 17.664-10.105 17.441-23.073-.211-12.218-7.551-21.778-16.409-21.981-8.857-.203-16.63 9.013-17.398 21.207z" fill="#FFA599"/><path d="M406.381 141.955c12.306 15.776 30.034 9.503 25.95.068 0 0-4.751-12.997-19.11-13.208-17.957-.264-6.84 13.14-6.84 13.14z" fill="#0E0E0E"/><path d="M409.826 160.518c-.461-.01-.905-.119-1.159-.438-.625-.784 1.054-4.62 1.396-5.38a.188.188 0 01.25-.094.188.188 0 01.094.25c-.813 1.804-1.798 4.546-1.446 4.988.412.519 1.831.226 2.341.07a.19.19 0 01.111.361c-.129.038-.879.258-1.589.241l.002.002zm-2.663 4.451s5.495 1.679 12.743-2.073c-3.985 5.749-9.202 9.337-12.743 2.073z" fill="#BD4A31"/><path d="M418.815 153.383c-.023.954-.422 1.718-.895 1.708-.474-.01-.838-.792-.816-1.747.023-.954.422-1.718.895-1.708.474.01.838.793.816 1.747zm-16.489-.756c-.022.954-.422 1.718-.895 1.708-.473-.01-.838-.792-.815-1.747.022-.954.422-1.718.895-1.708.473.01.838.793.815 1.747zm3.975-13.654s-2.185 12.002-12.343 12.796c-6.795.533 3.09-19.872 9.558-19.474 3.815.233 2.785 6.676 2.785 6.676v.002z" fill="#0E0E0E"/><path d="M444.017 188.625s-5.282-5.747-13.783.643c-6.959 5.233 4.803 38.568 4.803 38.568l-34.693 32.936 2.658 3.351s41.519-17.408 46.805-31.167c1.812-8.71-1.71-38.253-5.79-44.333v.002z" fill="#FFA599"/><path d="M403.756 231.189l1.884 32.561-4.479.749s-9.689-22.348-9.249-34.969c.385-11.062 13.189-8.418 11.844 1.659z" fill="#FFA599"/><path d="M406.09 261.724s4.911 2.937 2.548 4.93c-2.364 1.99-10.879 1.874-8.446-3.427 2.433-5.3 5.898-1.503 5.898-1.503z" fill="#FFA599"/><path d="M400.319 260.221c-.383-.076-8.917 5.978-6.345 8.606 2.573 2.627 15.432-5.256 12.89-8.467-2.543-3.211-6.545-.139-6.545-.139z" fill="#FFA599"/></g><defs><clipPath id="clip0_223_20285"><path fill="#fff" transform="translate(.5)" d="M0 0h605v426H0z"/></clipPath></defs></svg>