<svg width="620" height="359" viewBox="0 0 620 359" fill="none" xmlns="http://www.w3.org/2000/svg">
<path d="M3.60608 330.769C56.8384 308.877 109.213 221.195 84.7589 149.65C42.3253 25.4937 206.992 -49.7495 294.922 38.1374C350.706 93.8939 485.625 7.01766 549.193 101.673C583.163 152.256 534.065 232.877 536.109 271.992C538.04 309.001 587.352 330.769 587.352 330.769H3.60608Z" fill="#FFF7C9"/>
<path d="M618.995 331.329H1.00531C0.450518 331.329 0 330.879 0 330.324C0 329.77 0.450518 329.32 1.00531 329.32H618.995C619.549 329.32 620 329.77 620 330.324C620 330.879 619.549 331.329 618.995 331.329Z" fill="black"/>
<path d="M475.251 160.42L463.482 173.414L442.843 151.037L456.813 145.716L475.251 160.42Z" fill="#FFA46E"/>
<path d="M460.576 163.977L459.86 164.351L452.731 168.069C450.809 169.098 448.418 168.374 447.389 166.457C441.302 151.139 434.092 137.05 425.113 124.89C424.086 122.971 424.808 120.581 426.728 119.553L434.177 115.665L434.574 115.459C436.494 114.431 438.885 115.154 439.913 117.073C448.77 129.739 456.105 143.669 462.19 158.637C463.219 160.558 462.495 162.947 460.576 163.975V163.977Z" fill="#545454"/>
<path d="M440.643 127.603L431.558 132.358C429.815 133.292 427.645 132.635 426.713 130.893L423.6 125.086C422.666 123.344 423.323 121.175 425.066 120.243L434.151 115.488C435.894 114.554 438.064 115.211 438.997 116.953L442.109 122.76C443.043 124.502 442.386 126.671 440.643 127.603Z" fill="#333333"/>
<path d="M438.645 127.635L431.519 131.341C430.016 132.146 428.147 131.581 427.342 130.079L424.539 124.848C423.734 123.346 424.299 121.478 425.802 120.674L432.927 116.967C434.43 116.163 436.299 116.727 437.104 118.23L439.908 123.46C440.712 124.962 440.148 126.831 438.645 127.635Z" fill="#6E6E6E"/>
<path d="M460.175 164.046L451.09 168.801C449.347 169.735 447.177 169.078 446.244 167.336L443.132 161.529C442.198 159.787 442.855 157.618 444.598 156.686L453.683 151.931C455.426 150.997 457.596 151.654 458.528 153.396L461.641 159.203C462.575 160.945 461.918 163.114 460.175 164.046Z" fill="#333333"/>
<path d="M458.245 164.205L451.119 167.912C449.616 168.716 447.747 168.152 446.943 166.65L444.139 161.419C443.335 159.917 443.899 158.049 445.402 157.244L452.528 153.538C454.031 152.734 455.9 153.298 456.705 154.8L459.508 160.031C460.313 161.533 459.748 163.401 458.245 164.205Z" fill="#6E6E6E"/>
<path d="M443.181 156.879C442.471 156.721 435.991 152.93 441.68 142.978C445.79 142.662 446.233 147.93 445.473 149.296C443.103 153.561 443.181 156.879 443.181 156.879Z" fill="#FFA46E"/>
<path d="M460.576 163.977L459.86 164.351C460.016 163.969 460.441 162.919 460.862 161.702C461.397 160.168 454.586 149.688 454.586 149.688C454.586 149.688 447.307 148.687 443.901 142.011C440.496 135.337 443.165 128.929 443.165 128.929C443.165 128.929 439.628 122.723 438.025 119.185C437.122 117.195 435.459 116.177 434.177 115.664L434.574 115.457C436.494 114.429 438.884 115.152 439.913 117.071C448.77 129.737 456.105 143.667 462.19 158.635C463.219 160.556 462.495 162.945 460.576 163.973V163.977Z" fill="#333333"/>
<path d="M451.163 148.034C453.081 149.043 455.135 147.643 456.852 148.034C457.738 148.236 457.901 149.576 458.67 150.087C462.542 144.638 455.08 130.775 448.627 127.782C448.208 127.588 443.767 128.014 444 134.836C444.145 139.112 449.247 147.023 451.165 148.032L451.163 148.034Z" fill="#FFA46E"/>
<path d="M528.741 204.258C528.741 204.258 528.741 204.268 528.737 204.274C528.55 205.302 528.249 206.315 527.816 207.298C525.802 211.904 520.974 215.838 512.007 217.339C498.103 218.393 477.755 219.25 459.65 220.544C454.446 220.915 449.427 221.324 444.8 221.783C425.648 216.843 414.153 187.591 436.602 181.387C439.142 180.685 449.664 180.483 462.557 180.821C486.002 181.433 517.287 183.826 522.683 188.23C526.937 191.703 529.833 198.212 528.741 204.258Z" fill="white"/>
<path d="M430 183.782C418.534 193.022 402.315 195.459 390.265 184.563C390.381 178.52 392.058 160.509 391.648 154.633L429.026 159.671C429.311 166.756 429.713 176.668 430 183.782Z" fill="#FFA46E"/>
<path d="M429.134 161.281C429.112 160.74 429.093 160.186 429.073 159.673H401.471L393.128 161.429C393.128 161.429 404.959 180.953 429.949 183.826C429.651 175.589 429.29 165.47 429.136 161.281H429.134Z" fill="#D46C42"/>
<path d="M434.56 136.002C437.098 135.876 439.026 133.167 438.866 129.952C438.706 126.737 436.518 124.234 433.98 124.36C431.442 124.486 429.514 127.195 429.674 130.41C429.834 133.625 432.022 136.128 434.56 136.002Z" fill="#FFA46E"/>
<path d="M430.944 112.498C430.759 113.131 438.81 142.068 437.814 149.294C429.414 170.948 415.211 178.674 392.121 162.19C388.719 158.237 378.182 136.238 377.997 136.029C362.66 106.321 419.469 81.3307 430.946 112.498H430.944Z" fill="#FFA46E"/>
<path d="M425.532 105.79C430.482 106.949 432.211 120.277 433.645 124.341L433.917 123.57C435.164 68.0596 342.819 95.754 380.515 141.016C383.246 142.683 386.185 148.172 387.834 152.14C387.391 149.44 390.57 141.199 389.455 135.095C389.455 135.095 382.902 126.821 384.912 118.873C386.146 114.002 396.584 115.486 405.469 112.254C414.511 108.964 421.973 104.451 425.53 105.792L425.532 105.79Z" fill="black"/>
<path d="M404.047 134.887C405.16 137.962 401.981 139.128 400.842 136.063C399.728 132.987 402.908 131.821 404.047 134.887Z" fill="black"/>
<path d="M429.004 125.843C430.118 128.919 426.939 130.085 425.799 127.019C424.686 123.944 427.865 122.778 429.004 125.843Z" fill="black"/>
<path d="M421.959 146.675C428.188 144.691 419.293 137.516 417.458 135.661L415.955 131.567C415.855 131.296 415.554 131.157 415.28 131.255C415.007 131.353 414.869 131.656 414.967 131.929L416.563 136.273C419.402 138.745 423.421 143.01 423.146 144.43C422.485 146.773 416.543 145.763 416.769 146.862C416.726 147.904 420.043 147.243 421.959 146.675Z" fill="#C75038"/>
<path d="M421.881 156.397C423.525 155.793 424.623 155.305 424.782 155.233C425.402 154.963 424.971 153.986 424.352 154.275C424.206 154.34 409.791 160.746 404.147 156.538C403.915 156.365 403.586 156.413 403.411 156.645C405.713 161.464 417.952 157.866 421.881 156.397Z" fill="#C75038"/>
<path d="M396.457 132.653C391.786 132.47 399.675 125.375 404.304 127.133C404.873 127.247 405.241 127.802 405.125 128.37C405.009 128.938 404.456 129.306 403.887 129.19C398.505 128.378 397.57 132.144 396.457 132.653Z" fill="black"/>
<path d="M420.946 123.385C416.872 123.549 422.479 116.696 428.912 118.188C429.48 118.304 429.848 118.857 429.732 119.425C429.616 119.993 429.061 120.361 428.495 120.245C423.126 119.407 422 122.902 420.946 123.383V123.385Z" fill="black"/>
<path d="M372.724 111.884C372.724 111.884 383.45 88.5767 405.07 82.772C426.689 76.9673 422.109 90.6886 422.109 90.6886C444.833 87.1314 410.318 111.939 401.214 113.78C392.992 116.037 372.217 118.696 372.724 111.884Z" fill="black"/>
<path d="M389.097 153.055C392.027 150.812 392.096 145.984 389.251 142.272C386.406 138.559 381.725 137.368 378.794 139.611C375.864 141.855 375.795 146.683 378.64 150.395C381.485 154.108 386.167 155.299 389.097 153.055Z" fill="#FFA46E"/>
<path d="M386.366 150.504C386.09 150.604 385.778 150.488 385.638 150.222C383.492 146.144 381.876 145.395 381.103 145.31C380.305 145.224 379.846 145.757 379.826 145.778C379.618 146.026 379.244 146.064 378.994 145.857C378.744 145.651 378.703 145.285 378.906 145.031C378.939 144.988 379.76 143.989 381.196 144.127C382.996 144.3 384.845 146.164 386.689 149.67C386.84 149.959 386.73 150.317 386.441 150.47C386.417 150.482 386.393 150.494 386.368 150.502L386.366 150.504Z" fill="#C75038"/>
<path d="M355.001 340.795C354.511 346.535 354.007 352.534 353.521 358.524H445.973L446.638 184.53C441.908 183.529 435.556 181.079 429.134 180.548C425.101 184.872 422.677 187.892 415.815 188.046C411.572 188.138 405.3 185.949 401.184 180.196C368.249 183.438 351.149 194.965 351.149 194.965L366.337 300.392C366.337 300.392 356.848 319.193 355.001 340.795Z" fill="#9EDDFF"/>
<path d="M466.343 358.524L465.532 350.299C439.03 358.064 383.049 359.802 354.771 350.299C354.527 353.146 354.281 355.881 354.035 358.524H466.343Z" fill="#204F63"/>
<path d="M419.874 202.844L425.858 195.124L416.189 188.264L405.835 194.863L411.953 202.844H419.874Z" fill="#3086B3"/>
<path d="M436.415 315.069L424.406 334.819L412.894 315.694C415.64 280.449 414.383 234.951 412.032 197.877L420.218 197.932C427.965 235.643 434.42 280.29 436.415 315.071V315.069Z" fill="#3086B3"/>
<path d="M434.118 181.155L429.844 176.713C429.48 181.226 421.115 187.072 416.189 188.266C420.62 192.037 424.041 194.894 428.495 201.763L434.118 181.157V181.155Z" fill="#5BB9EB"/>
<path d="M384.987 181.851L391.414 173.746C391.414 173.746 404.302 183.373 416.189 188.264C410.865 192.271 408.436 196.397 405.243 201.761L384.987 181.851Z" fill="#5BB9EB"/>
<path d="M347.307 358.524H399.307C406.27 297.496 399.349 238.556 384.247 182.243C355.613 186.518 350.919 194.965 350.919 194.965L363.283 302.726L347.307 358.524Z" fill="white"/>
<path d="M442.719 358.524H469.616L462.622 282.547L457.991 189.159C444.867 182.876 440.704 182.176 433.693 180.717C443.289 242.868 446.638 301.786 442.719 358.524Z" fill="white"/>
<path d="M400.336 325.459C400.362 325.454 400.385 325.448 400.411 325.442C406.451 323.981 401.883 293.138 401.883 293.138C392.626 295.085 382.485 325.442 382.485 325.442C382.485 325.442 382.536 325.448 382.63 325.459H400.338H400.336Z" fill="#276C9C"/>
<path d="M380.214 222.435L365.182 272.971L401.285 293.799C385.808 298.274 380.185 313.736 373.805 328.354L330.088 293.447L356.935 211.64L380.212 222.435H380.214Z" fill="#D9F1FF"/>
<path d="M430.968 325.815L396.165 325.719L386.819 325.691C384.535 320.809 383.291 315.541 389.258 307.591C389.258 307.591 390.732 307.451 392.992 307.255C398.143 306.806 407.383 306.067 412.591 306.038C424.676 305.969 430.966 325.815 430.966 325.815H430.968Z" fill="#FFA46E"/>
<path d="M396.166 325.719L386.819 325.691C384.535 320.809 383.291 315.541 389.258 307.591C389.258 307.591 390.732 307.451 392.992 307.255C392.506 310.34 391.407 320.237 396.164 325.719H396.166Z" fill="#D17743"/>
<path d="M413.604 306.104C413.974 306.104 424.456 305.489 428.033 308.201C431.609 310.912 434.938 317.199 434.938 317.199C434.938 317.199 434.322 318.556 431.361 317.568C428.402 316.583 425.566 312.021 425.566 312.021L414.96 311.282L413.602 306.104H413.604Z" fill="#FFA46E"/>
<path d="M426.648 325.859C426.596 325.859 426.549 325.821 426.539 325.768C424.405 314.709 415.292 312.291 415.202 312.267C415.143 312.251 415.105 312.192 415.121 312.133C415.137 312.074 415.196 312.037 415.255 312.053C415.347 312.076 424.596 314.53 426.756 325.727C426.768 325.788 426.728 325.845 426.667 325.857C426.659 325.857 426.653 325.859 426.646 325.859H426.648Z" fill="#D66D2D"/>
<path d="M421.93 325.796C421.885 325.796 421.843 325.768 421.826 325.725C420.023 321.102 411.792 317.893 411.71 317.861C411.652 317.84 411.623 317.775 411.647 317.718C411.668 317.661 411.733 317.633 411.79 317.655C411.875 317.686 420.197 320.931 422.034 325.644C422.056 325.701 422.028 325.766 421.971 325.788C421.957 325.794 421.944 325.796 421.93 325.796Z" fill="#D66D2D"/>
<path d="M350.921 195.461C350.167 195.693 296.053 275.295 312.5 300.266C318.469 309.329 388.196 328.466 388.196 328.466C384.934 319.448 388.294 308.13 401.942 293.239C400.639 293.239 354.934 276.387 354.934 276.387C354.934 276.387 381.924 225.367 382.359 211.925C382.794 198.483 366.341 190.704 350.921 195.461Z" fill="white"/>
<path d="M471.452 152.966C471.452 152.966 522.679 184.512 527.069 192.499C532.416 202.231 527.72 217.272 509.644 216.08C491.568 214.889 457.198 174.861 457.198 174.861L471.452 152.964V152.966Z" fill="white"/>
<path d="M489.907 205.566C477.082 197.936 457.344 175.479 457.145 175.252L457.82 174.662C458.017 174.887 477.663 197.238 490.366 204.795L489.907 205.566Z" fill="#D9F1FF"/>
<path d="M527.816 207.298C525.802 211.904 520.974 215.838 512.007 217.339C498.104 218.393 477.755 219.25 459.65 220.544C458.8 215.689 457.618 208.681 457.618 208.681C457.618 208.681 482.408 215.465 503.669 214.592C513.223 214.2 522.062 212.263 527.62 207.469C527.684 207.412 527.751 207.355 527.816 207.296V207.298Z" fill="#F2FAFF"/>
<path d="M459.288 169.166L456.85 170.476L454.027 166.962L457.913 164.874L459.288 169.166Z" fill="#333333"/>
<path d="M460.01 183.104C459.912 183.104 459.815 183.071 459.734 183C459.563 182.848 459.55 182.587 459.701 182.416C461.912 179.928 458.09 170.232 456.429 166.705C456.333 166.498 456.421 166.252 456.628 166.154C456.835 166.056 457.08 166.146 457.179 166.353C457.433 166.889 463.346 179.563 460.321 182.964C460.238 183.057 460.126 183.102 460.012 183.102L460.01 183.104Z" fill="#333333"/>
<path d="M459.622 184.77C459.486 184.77 459.355 184.703 459.274 184.581C459.15 184.39 459.205 184.134 459.396 184.009L463.397 181.417C463.588 181.293 463.844 181.348 463.97 181.539C464.094 181.73 464.039 181.985 463.848 182.111L459.846 184.703C459.778 184.748 459.699 184.77 459.622 184.77Z" fill="#333333"/>
<path d="M459.919 186.109C459.784 186.109 459.652 186.042 459.571 185.92C459.447 185.729 459.502 185.474 459.693 185.348L463.695 182.756C463.885 182.632 464.141 182.687 464.267 182.878C464.391 183.069 464.336 183.324 464.145 183.45L460.144 186.042C460.075 186.087 459.996 186.109 459.919 186.109Z" fill="#333333"/>
<path d="M460.216 187.446C460.081 187.446 459.949 187.379 459.868 187.257C459.744 187.066 459.799 186.811 459.99 186.685L463.992 184.093C464.182 183.969 464.438 184.024 464.564 184.215C464.688 184.406 464.633 184.661 464.442 184.787L460.441 187.379C460.372 187.424 460.293 187.446 460.216 187.446Z" fill="#333333"/>
<path d="M460.513 188.783C460.378 188.783 460.246 188.716 460.165 188.594C460.041 188.403 460.096 188.148 460.287 188.022L464.289 185.43C464.48 185.306 464.735 185.361 464.861 185.552C464.985 185.743 464.93 185.999 464.739 186.124L460.738 188.716C460.669 188.761 460.59 188.783 460.513 188.783Z" fill="#333333"/>
<path d="M460.811 190.12C460.675 190.12 460.543 190.053 460.462 189.931C460.338 189.741 460.394 189.485 460.584 189.359L464.586 186.767C464.777 186.644 465.033 186.699 465.158 186.889C465.282 187.08 465.227 187.336 465.036 187.462L461.035 190.053C460.966 190.098 460.887 190.12 460.811 190.12Z" fill="#333333"/>
<path d="M461.11 191.459C460.974 191.459 460.842 191.392 460.761 191.27C460.637 191.08 460.692 190.824 460.883 190.698L464.885 188.107C465.076 187.983 465.331 188.038 465.457 188.228C465.581 188.419 465.526 188.675 465.335 188.801L461.334 191.392C461.265 191.438 461.186 191.459 461.11 191.459Z" fill="#333333"/>
<path d="M461.407 192.796C461.271 192.796 461.139 192.73 461.058 192.608C460.934 192.417 460.99 192.161 461.18 192.035L465.182 189.444C465.373 189.32 465.629 189.375 465.754 189.566C465.878 189.756 465.823 190.012 465.632 190.138L461.631 192.73C461.562 192.775 461.483 192.796 461.407 192.796Z" fill="#333333"/>
<path d="M461.704 194.133C461.568 194.133 461.436 194.067 461.355 193.945C461.232 193.754 461.287 193.498 461.477 193.372L465.479 190.781C465.67 190.657 465.926 190.712 466.052 190.903C466.175 191.093 466.12 191.349 465.93 191.475L461.928 194.067C461.859 194.112 461.78 194.133 461.704 194.133Z" fill="#333333"/>
<path d="M462.001 195.471C461.865 195.471 461.733 195.404 461.652 195.282C461.529 195.091 461.584 194.835 461.774 194.71L465.776 192.118C465.967 191.994 466.223 192.049 466.349 192.24C466.472 192.431 466.417 192.686 466.227 192.812L462.225 195.404C462.156 195.449 462.077 195.471 462.001 195.471Z" fill="#333333"/>
<path d="M462.298 196.81C462.162 196.81 462.03 196.743 461.95 196.621C461.826 196.43 461.881 196.175 462.072 196.049L466.073 193.457C466.264 193.333 466.52 193.388 466.646 193.579C466.77 193.77 466.714 194.025 466.524 194.151L462.522 196.743C462.453 196.788 462.375 196.81 462.298 196.81Z" fill="#333333"/>
<path d="M462.595 198.147C462.459 198.147 462.327 198.08 462.247 197.958C462.123 197.767 462.178 197.512 462.369 197.386L466.37 194.794C466.561 194.67 466.817 194.725 466.943 194.916C467.067 195.107 467.011 195.362 466.821 195.488L462.819 198.08C462.75 198.125 462.672 198.147 462.595 198.147Z" fill="#333333"/>
<path d="M462.894 199.484C462.758 199.484 462.626 199.417 462.546 199.295C462.422 199.104 462.477 198.849 462.668 198.723L466.669 196.131C466.86 196.007 467.116 196.062 467.242 196.253C467.366 196.444 467.31 196.7 467.12 196.825L463.118 199.417C463.049 199.462 462.971 199.484 462.894 199.484Z" fill="#333333"/>
<path d="M463.191 200.821C463.055 200.821 462.923 200.754 462.843 200.632C462.719 200.442 462.774 200.186 462.965 200.06L466.966 197.468C467.157 197.345 467.413 197.4 467.539 197.59C467.663 197.781 467.608 198.037 467.417 198.163L463.415 200.754C463.346 200.799 463.268 200.821 463.191 200.821Z" fill="#333333"/>
<path d="M463.488 202.16C463.352 202.16 463.221 202.093 463.14 201.971C463.016 201.781 463.071 201.525 463.262 201.399L467.263 198.807C467.454 198.684 467.71 198.739 467.836 198.929C467.96 199.12 467.905 199.376 467.714 199.502L463.712 202.093C463.644 202.139 463.565 202.16 463.488 202.16Z" fill="#333333"/>
<path d="M463.785 203.497C463.649 203.497 463.518 203.43 463.437 203.309C463.313 203.118 463.368 202.862 463.559 202.736L467.56 200.145C467.751 200.021 468.007 200.076 468.133 200.267C468.257 200.457 468.202 200.713 468.011 200.839L464.009 203.43C463.94 203.476 463.862 203.497 463.785 203.497Z" fill="#333333"/>
<path d="M464.082 204.834C463.946 204.834 463.815 204.768 463.734 204.646C463.61 204.455 463.665 204.199 463.856 204.073L467.858 201.482C468.048 201.358 468.304 201.413 468.43 201.604C468.554 201.794 468.499 202.05 468.308 202.176L464.306 204.768C464.238 204.813 464.159 204.834 464.082 204.834Z" fill="#333333"/>
<path d="M468.955 255.763C468.93 255.763 468.902 255.761 468.875 255.756C468.65 255.712 468.505 255.494 468.548 255.272C473.242 231.286 471.141 209.878 468.434 206.215C467.311 204.697 465.597 205.635 465.524 205.676C465.325 205.788 465.074 205.717 464.962 205.519C464.849 205.32 464.92 205.068 465.119 204.956C465.953 204.488 467.857 204.046 469.099 205.725C471.78 209.351 474.302 230.183 469.361 255.433C469.321 255.63 469.15 255.767 468.955 255.767V255.763Z" fill="#333333"/>
<path d="M185.916 121.808C185.916 121.808 186.323 162.638 217.417 166.496C245.259 167.308 259.876 168.828 248.489 113.837C241.58 89.2572 186.321 95.4001 185.916 121.806V121.808Z" fill="#C95138"/>
<path d="M274.529 343.064H162.195L169.927 189.341C201.037 176.42 233.128 178.296 266.797 189.341L274.529 343.064Z" fill="#9EDDFF"/>
<path d="M196.226 203.499C196.226 204.842 191.989 263.985 207.836 287.607C223.681 311.229 187.157 344.246 187.157 344.246C153.049 332.704 173.937 194.643 196.228 203.501L196.226 203.499Z" fill="#66C2F5"/>
<path d="M235.949 186.557C235.949 186.557 232.664 198.979 219.339 199.539C206.014 200.099 201.928 186.557 201.928 186.557L204.773 164.148L206.478 150.714H231.401L234.192 172.708L235.949 186.555V186.557Z" fill="#F7A594"/>
<path d="M234.19 172.71C222.138 174.776 211.277 169.859 204.769 164.148L206.474 150.714H231.397L234.188 172.708L234.19 172.71Z" fill="#DE7964"/>
<path d="M202.941 171.697C202.941 172.558 218.452 199.085 218.452 199.085C218.452 199.085 205.009 208.215 205.009 207.524C205.009 206.834 198.633 182.203 198.633 182.203L202.941 171.695V171.697Z" fill="#80D3FF"/>
<path d="M234.995 173.074C234.995 173.935 218.105 199.429 218.105 199.429C218.105 199.429 230.513 209.591 230.513 208.903C230.513 208.215 239.303 183.582 239.303 183.582L234.995 173.074Z" fill="#80D3FF"/>
<path d="M188.473 357.899L149.331 355.445L164.391 277.879L164.369 277.49L163.183 256.971L162.711 248.799L161.345 225.184L160.094 203.545L159.573 194.515C159.573 194.515 167.09 189.729 177.234 185.772C183.136 183.47 189.925 181.446 196.642 180.807C194.991 257.639 199.28 300.573 188.473 357.899Z" fill="white"/>
<path d="M184.9 238.9C180.954 242.866 176.484 247.139 171.125 251.323C168.674 253.237 166.04 255.132 163.183 256.971C154.861 262.327 144.668 267.2 131.747 270.657C130.318 271.201 128.963 271.441 127.694 271.412C117.645 271.186 112.882 254.214 119.048 239.509C121.017 234.812 124.1 230.346 128.483 226.73L160.096 203.545L174.212 193.192C174.226 193.184 174.239 193.178 174.253 193.17C189.158 185.554 202.729 223.507 184.902 238.9H184.9Z" fill="white"/>
<path d="M173.446 242.331L171.125 251.323L164.369 277.49L163.183 256.971C154.861 262.327 144.668 267.2 131.747 270.657C130.318 271.201 128.963 271.441 127.694 271.412C117.645 271.186 112.882 254.214 119.047 239.509C119.588 248.72 121.825 256.766 127.662 258.581C132.73 260.158 139.636 258.79 146.543 256.298C152.278 254.228 158.017 251.382 162.711 248.799C169.022 245.328 173.446 242.331 173.446 242.331Z" fill="#D9F1FF"/>
<path d="M241.495 182.288C259.754 184.026 276.341 193.032 276.341 193.032L271.658 277.879L286.718 355.445H235.329C238.841 324.571 248.019 254.92 241.493 182.288H241.495Z" fill="white"/>
<path d="M275.841 192.812C275.841 192.812 298.265 226.822 302.018 281.92C303.055 297.124 268.601 349.837 268.601 349.837H228.914L267.971 289.705C267.971 289.705 240.314 233.726 248.188 215.467C256.063 197.207 266.931 188.545 275.839 192.812H275.841Z" fill="white"/>
<path d="M229.886 349.03L229.288 348.655L270.379 283.409L257.263 247.131L257.928 246.891L271.161 283.493L271.068 283.639L229.886 349.03Z" fill="#D9F1FF"/>
<path d="M203.466 171.725C201.536 190.797 196.189 267.884 196.189 267.884C184.381 242.044 179.085 223.291 179.085 223.291L187.661 214.076L173.907 191.196C183.38 178.094 203.468 171.725 203.468 171.725H203.466Z" fill="#D9F1FF"/>
<path d="M234.359 171.864C235.329 192.635 244.932 220.683 243.041 267.208C254.849 241.368 258.381 223.055 258.381 223.055L249.805 213.84L263.559 190.96C256.252 180.046 234.359 171.864 234.359 171.864Z" fill="#D9F1FF"/>
<path d="M243.22 254.379C243.22 254.379 209.6 244.858 217.859 216.013C221.934 201.783 246.181 194.971 232.925 173.205C232.866 173.109 232.807 173.009 232.746 172.91L230.936 156.881C230.936 156.881 243.49 153.909 248.117 147.8C244.662 157.046 248.611 161.675 250.643 163.613C258.625 171.229 267.031 179.281 267.151 192.985C267.379 219.02 240.903 218.426 243.222 254.377L243.22 254.379Z" fill="#C95138"/>
<path d="M244.824 134.35C250.787 142.172 239.071 164.288 219.061 164.357C206.437 163.855 186.52 151.945 191.672 127.094C188.064 106.359 200.846 86.7657 219.061 86.7657C237.277 86.7657 248.882 112.488 244.824 134.352V134.35Z" fill="#F7A594"/>
<path d="M247.525 139.221C250.824 139.221 253.498 136.548 253.498 133.251C253.498 129.954 250.824 127.281 247.525 127.281C244.226 127.281 241.552 129.954 241.552 133.251C241.552 136.548 244.226 139.221 247.525 139.221Z" fill="#F7A594"/>
<path d="M232.791 101.649C224.224 118.774 192.807 126.673 192.807 126.673L187.843 127.391L186.458 127.592C186.458 127.592 183.832 112.57 193.391 98.7862C202.953 85.0019 218.166 86.2545 218.166 86.2545C218.166 86.2545 221.219 86.1523 224.654 86.8896C230.326 88.1088 237.039 91.6168 232.791 101.647V101.649Z" fill="#C95138"/>
<path d="M224.656 86.8916C214.365 88.3684 204.548 91.7446 197.245 99.4154C190.633 106.359 188.487 120.774 187.845 127.391L186.46 127.592C186.46 127.592 183.834 112.57 193.393 98.7862C202.955 85.0019 218.168 86.2545 218.168 86.2545C218.168 86.2545 221.221 86.1523 224.656 86.8896V86.8916Z" fill="#F56245"/>
<path d="M219.697 101.099C214.631 89.6327 218.697 86.3803 218.697 86.3803C218.697 86.3803 233.913 85.1278 243.472 98.912C253.033 112.696 247.157 127.181 247.157 127.181C247.157 127.181 224.104 131.184 219.697 101.101V101.099Z" fill="#C95138"/>
<path d="M190.004 138.896C193.302 138.896 195.977 136.223 195.977 132.926C195.977 129.629 193.302 126.956 190.004 126.956C186.705 126.956 184.031 129.629 184.031 132.926C184.031 136.223 186.705 138.896 190.004 138.896Z" fill="#F7A594"/>
<path d="M192.17 141.582C192.17 141.582 197.116 150.474 206.712 152.859C207.242 152.991 207.564 153.524 207.444 154.057C207.322 154.602 206.777 154.944 206.234 154.816C203.441 154.163 195.577 151.432 190.511 142.652L192.17 141.582Z" fill="black"/>
<path d="M191.749 142.737C193.757 142.104 194.682 139.359 193.814 136.606C192.946 133.853 190.614 132.134 188.606 132.767C186.597 133.399 185.673 136.144 186.541 138.897C187.409 141.65 189.74 143.369 191.749 142.737Z" fill="black"/>
<path d="M190.428 143.466C192.553 142.797 193.531 139.894 192.613 136.983C191.695 134.071 189.229 132.253 187.104 132.922C184.98 133.591 184.002 136.494 184.92 139.406C185.838 142.317 188.304 144.135 190.428 143.466Z" fill="white"/>
<path d="M190.33 137.891C190.859 139.569 190.295 141.242 189.071 141.628C187.847 142.013 186.425 140.965 185.896 139.288C185.367 137.61 185.931 135.937 187.155 135.551C188.379 135.166 189.801 136.214 190.33 137.891Z" fill="#B8E5FF"/>
<path d="M193.537 140.161C193.513 140.161 193.49 140.161 193.466 140.155C193.234 140.115 193.077 139.897 193.116 139.665C193.801 135.565 192.29 131.096 190.501 129.308C188.416 127.224 185.831 128.885 185.721 128.958C185.524 129.088 185.26 129.033 185.131 128.838C185.001 128.642 185.054 128.38 185.251 128.248C185.284 128.227 188.522 126.127 191.103 128.706C193.085 130.687 194.694 135.38 193.956 139.807C193.921 140.015 193.742 140.163 193.537 140.163V140.161Z" fill="black"/>
<path d="M191.424 126.752C191.424 126.752 219.433 119.836 226.164 103.657C230.407 92.5056 223.557 86.6281 223.557 86.6281C223.557 86.6281 230.456 89.3318 230.226 100.869C229.864 118.955 191.424 126.752 191.424 126.752Z" fill="#A33A23"/>
<path d="M217.924 142.21C216.962 142.21 214.863 142.097 214.55 141.132C214.179 139.982 217.492 130.982 218.16 129.188C218.217 129.033 218.391 128.954 218.544 129.013C218.7 129.07 218.778 129.243 218.719 129.397C216.791 134.57 214.916 140.306 215.119 140.947C215.286 141.464 217.106 141.645 218.284 141.606C218.288 141.606 218.29 141.606 218.294 141.606C218.454 141.606 218.587 141.734 218.593 141.895C218.599 142.06 218.469 142.198 218.306 142.204C218.223 142.206 218.092 142.21 217.924 142.21Z" fill="#BA4228"/>
<path d="M212.343 150.852C212.343 150.852 222.581 151.953 231.169 147.11C228.857 156.572 218.398 161.525 212.343 150.852Z" fill="#A33A23"/>
<path d="M204.3 133.554C203.555 133.554 202.943 132.944 202.943 132.197V129.483C202.943 128.738 203.553 128.126 204.3 128.126C205.046 128.126 205.658 128.736 205.658 129.483V132.197C205.658 132.942 205.048 133.554 204.3 133.554Z" fill="black"/>
<path d="M233.157 133.774C232.412 133.774 231.8 133.164 231.8 132.417V129.703C231.8 128.958 232.41 128.347 233.157 128.347C233.903 128.347 234.515 128.956 234.515 129.703V132.417C234.515 133.162 233.905 133.774 233.157 133.774Z" fill="black"/>
<path d="M236.429 136.802C236.429 137.427 234.908 137.935 233.031 137.935C231.155 137.935 229.634 137.427 229.634 136.802C229.634 136.177 231.155 135.669 233.031 135.669C234.908 135.669 236.429 136.177 236.429 136.802Z" fill="#F79985"/>
<path d="M207.865 136.802C207.865 137.427 206.345 137.935 204.468 137.935C202.591 137.935 201.07 137.427 201.07 136.802C201.07 136.177 202.591 135.669 204.468 135.669C206.345 135.669 207.865 136.177 207.865 136.802Z" fill="#F79985"/>
<path d="M246.126 136.531C245.961 136.531 245.827 136.397 245.827 136.232C245.827 136.043 245.858 131.617 248.613 130.879C248.772 130.836 248.935 130.93 248.979 131.09C249.022 131.249 248.927 131.412 248.768 131.455C246.456 132.075 246.425 136.19 246.425 136.232C246.425 136.397 246.291 136.531 246.126 136.531Z" fill="#BA4228"/>
<path d="M164.003 203.057L152.961 190.511L172.359 172.242L181.316 177.87L164.003 203.057Z" fill="#F7A594"/>
<path d="M171.871 172.95C171.965 171.872 175.975 152.572 175.695 153.028C179.681 147.967 188.371 154.269 188.705 162.438C188.705 162.438 185.017 176.318 180.161 179.175C171.401 184.274 171.873 172.948 171.873 172.948L171.871 172.95Z" fill="#F7A594"/>
<path d="M175.682 152.987C175.682 152.987 182.778 133.353 182.986 133.453C183.195 133.554 184.987 133.925 184.698 136.83C184.407 139.736 179.597 155.724 179.597 155.724L175.684 152.985L175.682 152.987Z" fill="#F7A594"/>
<path d="M178.932 154.592C178.932 154.592 189.39 136.936 189.587 137.079C189.784 137.223 191.572 137.95 190.716 140.908C189.86 143.865 183.189 156.863 183.189 156.863L178.932 154.594V154.592Z" fill="#F7A594"/>
<path d="M179.732 157.813C180.047 157.25 186.559 152.075 188.04 151.4C189.522 150.726 197.733 150.586 197.733 150.586C197.733 150.586 198.151 152.909 195.009 153.198C191.865 153.487 189.604 154.871 189.604 154.871L184.456 163.356L179.732 157.811V157.813Z" fill="#F7A594"/>
<path d="M184.267 163.197C184.267 163.197 186.081 157.032 190.094 156.674C193.934 156.332 198.318 160.251 198.318 160.251C198.318 160.251 198.221 161.62 195.546 161.132C192.87 160.644 192.182 159.956 192.182 159.956L189.449 160.762L187.281 167.047L184.269 163.197H184.267Z" fill="#F7A594"/>
<path d="M164.643 170.765C162.888 169.833 161.121 168.907 159.315 168.073L129.612 223.324L120.324 236.009C108.406 255.297 124.35 282.73 151.245 257.541C156.323 252.784 157.755 246.697 157.755 246.697L165.249 228.106L177.458 197.82L187.242 184.477C180.035 179.388 172.433 174.9 164.643 170.763V170.765Z" fill="white"/>
<path d="M150.973 254.822L150.405 254.401C152.563 251.483 154.178 248.187 155.742 245C156.073 244.323 156.403 243.651 156.74 242.98C158.802 239.006 160.604 235.262 162.414 231.192C163.458 228.789 164.505 226.4 165.548 224.018C169.047 216.025 172.355 208.474 175.561 200.575L175.595 200.512C178.125 196.719 180.83 192.962 183.448 189.33C184.536 187.817 185.664 186.254 186.75 184.726L187.326 185.135C186.238 186.665 185.113 188.23 184.023 189.743C181.416 193.361 178.721 197.103 176.205 200.876C172.998 208.773 169.541 216.668 166.197 224.303C165.154 226.685 164.107 229.072 163.061 231.479C161.243 235.565 159.435 239.321 157.371 243.303C157.039 243.967 156.71 244.64 156.38 245.312C154.802 248.529 153.171 251.854 150.975 254.824L150.973 254.822Z" fill="#D9F1FF"/>
<path d="M317.665 296.607C315.973 299.649 313.787 302.707 311.009 305.737C311.009 305.737 305.203 296.121 304.169 283.393C303.374 273.63 305.384 262.038 314.971 251.55C314.971 251.55 330.507 273.54 317.667 296.607H317.665Z" fill="#5FB38C"/>
<path d="M317.664 296.607C315.973 299.649 313.787 302.707 311.009 305.737C311.009 305.737 305.203 296.121 304.168 283.393L317.666 296.607H317.664Z" fill="#379168"/>
<path d="M310.846 305.373C310.513 300.146 310.501 294.751 310.674 289.573L305.992 283.739L306.155 283.607L310.686 289.251C310.84 284.832 311.125 280.581 311.459 276.737L311.381 276.8L306.659 270.918L306.822 270.787L311.471 276.58C311.67 274.302 311.886 272.173 312.101 270.238C312.103 270.218 312.105 270.197 312.107 270.177C313.201 260.329 314.495 253.349 314.507 253.278L314.713 253.317C314.7 253.386 313.425 260.268 312.337 270.002L318.743 265.147L318.868 265.314L312.303 270.289C311.947 273.51 311.587 277.274 311.306 281.348L319.402 276.416L319.51 276.595L311.286 281.604C310.785 288.993 310.545 297.376 311.05 305.357L310.842 305.371L310.846 305.373Z" fill="#379168"/>
<path d="M319.707 306.407C316.801 308.325 313.453 310.031 309.587 311.439C309.587 311.439 308.875 300.231 313.828 288.46C317.629 279.433 324.763 270.073 338.109 265.188C338.109 265.188 341.745 291.862 319.707 306.407Z" fill="#74C9A2"/>
<path d="M319.707 306.407C316.801 308.325 313.453 310.031 309.587 311.439C309.587 311.439 308.875 300.231 313.828 288.46L319.707 306.407Z" fill="#379168"/>
<path d="M335.217 279.199L335.182 278.992L327.258 280.347C332.715 272.212 337.023 266.695 337.067 266.64L336.901 266.51C336.858 266.565 332.487 272.163 326.972 280.396C326.96 280.414 326.949 280.43 326.939 280.447C325.857 282.064 324.682 283.855 323.455 285.784L322.003 278.501L321.796 278.542L323.27 285.938L323.368 285.918C321.298 289.174 319.083 292.814 316.907 296.664L316.75 296.945C314.208 301.46 311.727 306.254 309.61 311.044L309.803 311.129C313.038 303.814 317.118 296.485 320.974 290.161L330.582 289.508L330.569 289.3L321.11 289.943C323.238 286.459 325.296 283.283 327.098 280.591L335.219 279.203L335.217 279.199Z" fill="#379168"/>
<path d="M316.468 312.831C316.468 312.831 319.069 271.89 283.1 258.723C283.1 258.723 277.653 298.697 316.468 312.831Z" fill="#74C9A2"/>
<path d="M316.441 312.363C313.964 306.759 311.062 301.151 308.09 295.87L309.799 287.288L309.559 287.241L307.905 295.543C305.361 291.04 302.768 286.781 300.346 282.972L300.462 282.996L302.186 274.344L301.946 274.297L300.248 282.819C298.812 280.563 297.438 278.467 296.171 276.576C296.158 276.556 296.144 276.536 296.132 276.515C289.681 266.883 284.568 260.335 284.517 260.268L284.324 260.42C284.375 260.485 289.416 266.94 295.8 276.458L286.529 274.873L286.488 275.115L295.988 276.739C298.097 279.889 300.503 283.603 302.994 287.68L291.928 286.928L291.912 287.172L303.151 287.935C307.663 295.335 312.437 303.906 316.221 312.464L316.445 312.365L316.441 312.363Z" fill="#379168"/>
<path d="M329.402 300.288L325.778 329.323H298.916L295.752 303.977L295.292 300.288H329.402Z" fill="#E3733F"/>
<path d="M329.402 300.288L325.778 329.323H311.92C320.647 325.442 325.983 315.978 325.003 310.545C323.909 304.476 298.133 304.006 295.752 303.975L295.292 300.286H329.402V300.288Z" fill="#DB542E"/>
<path d="M330.364 300.097H294.33V303.358H330.364V300.097Z" fill="#E3733F"/>
<path d="M329.512 329.404H294.501L293.283 327.005H330.728L329.512 329.404Z" fill="#DB542E"/>
<path d="M456.827 241.389L429.929 325.996H357.686V329.575H432.904C440.724 305.096 458.373 250.002 461.536 241.387H456.829L456.827 241.389Z" fill="#33ACE6"/>
<path d="M461.591 241.389L432.925 329.577H452.738H546.386L574.421 241.389H461.591Z" fill="#3C4798"/>
<path d="M508.528 298.461H500.147L508.585 270.604H516.966L508.528 298.461Z" fill="white"/>
<path d="M493.352 288.72L495.89 280.345H523.761L521.223 288.72H493.352Z" fill="white"/>
<path d="M179.374 241.389L206.272 325.996H278.515V329.575H203.297C195.477 305.096 177.828 250.002 174.664 241.387H179.372L179.374 241.389Z" fill="#33ACE6"/>
<path d="M174.609 241.389L203.275 329.577H183.46H89.8149L61.7783 241.389H174.609Z" fill="#3C4798"/>
<path d="M127.673 298.461H136.051L127.614 270.604H119.235L127.673 298.461Z" fill="white"/>
<path d="M142.847 288.72L140.311 280.345H112.439L114.975 288.72H142.847Z" fill="white"/>
<path d="M65.0011 65.352H139.886C143.878 65.352 147.118 68.5906 147.118 72.5804V155.833C147.118 159.822 143.878 163.061 139.886 163.061H65.0011C61.0094 163.061 57.7692 159.822 57.7692 155.833V72.5804C57.7692 68.5906 61.0094 65.352 65.0011 65.352Z" fill="#79B829"/>
<path d="M95.1586 78.3713H70.9308V104.811H95.1586V78.3713Z" fill="white"/>
<path d="M83.1913 91.9354C84.6963 91.9354 86.0852 91.2019 86.9725 90.085C87.6276 89.2749 88.0152 88.2347 88.0152 87.0765C88.0152 84.416 85.8531 82.2156 83.1913 82.2156C80.5295 82.2156 78.328 84.414 78.328 87.0765C78.328 88.2347 78.7136 89.2749 79.3707 90.085C80.258 91.2039 81.6469 91.9354 83.1913 91.9354Z" fill="#ACD082"/>
<path d="M91.7355 101.108V97.0204C90.3426 91.9295 75.2826 92.134 74.6059 97.0204L74.6019 101.108H91.7375H91.7355Z" fill="#ACD082"/>
<path d="M132.69 78.8236H102.379C101.666 78.8236 101.088 79.4011 101.088 80.1135V80.8588C101.088 81.5712 101.666 82.1487 102.379 82.1487H132.69C133.402 82.1487 133.98 81.5712 133.98 80.8588V80.1135C133.98 79.4011 133.402 78.8236 132.69 78.8236Z" fill="white"/>
<path d="M132.69 87.7568H102.379C101.666 87.7568 101.088 88.3343 101.088 89.0467V89.792C101.088 90.5044 101.666 91.0819 102.379 91.0819H132.69C133.402 91.0819 133.98 90.5044 133.98 89.792V89.0467C133.98 88.3343 133.402 87.7568 132.69 87.7568Z" fill="white"/>
<path d="M132.69 97.5985H102.379C101.666 97.5985 101.088 98.176 101.088 98.8884V99.6337C101.088 100.346 101.666 100.924 102.379 100.924H132.69C133.402 100.924 133.98 100.346 133.98 99.6337V98.8884C133.98 98.176 133.402 97.5985 132.69 97.5985Z" fill="white"/>
<path d="M100.35 114.265H71.3065C70.8077 114.265 70.4034 114.67 70.4034 115.168V116.688C70.4034 117.186 70.8077 117.591 71.3065 117.591H100.35C100.849 117.591 101.253 117.186 101.253 116.688V115.168C101.253 114.67 100.849 114.265 100.35 114.265Z" fill="white"/>
<path d="M100.35 124.668H71.3065C70.8077 124.668 70.4034 125.072 70.4034 125.57V127.09C70.4034 127.589 70.8077 127.993 71.3065 127.993H100.35C100.849 127.993 101.253 127.589 101.253 127.09V125.57C101.253 125.072 100.849 124.668 100.35 124.668Z" fill="white"/>
<path d="M100.35 135.068H71.3065C70.8077 135.068 70.4034 135.472 70.4034 135.97V137.49C70.4034 137.989 70.8077 138.393 71.3065 138.393H100.35C100.849 138.393 101.253 137.989 101.253 137.49V135.97C101.253 135.472 100.849 135.068 100.35 135.068Z" fill="white"/>
<path d="M100.35 145.468H71.3065C70.8077 145.468 70.4034 145.872 70.4034 146.37V147.89C70.4034 148.389 70.8077 148.793 71.3065 148.793H100.35C100.849 148.793 101.253 148.389 101.253 147.89V146.37C101.253 145.872 100.849 145.468 100.35 145.468Z" fill="white"/>
<path d="M135.143 113.192H106.994V149.522H135.143V113.192Z" fill="white"/>
<path d="M253.067 87.8729L327.97 87.8729C330.741 87.8729 332.987 85.6279 332.987 82.8586V50.7478C332.987 47.9785 330.741 45.7336 327.97 45.7336L253.067 45.7336C250.297 45.7336 248.051 47.9785 248.051 50.7478V82.8586C248.051 85.6279 250.297 87.8729 253.067 87.8729Z" fill="#3C4798"/>
<path d="M262.07 81.0653V100.076L281.456 80.6996L262.07 81.0653Z" fill="#3B4A9A"/>
<path d="M316.738 70.8952C318.782 70.8952 320.439 69.2392 320.439 67.1965C320.439 65.1537 318.782 63.4977 316.738 63.4977C314.695 63.4977 313.038 65.1537 313.038 67.1965C313.038 69.2392 314.695 70.8952 316.738 70.8952Z" fill="white"/>
<path d="M304.328 70.8952C306.372 70.8952 308.029 69.2392 308.029 67.1965C308.029 65.1537 306.372 63.4977 304.328 63.4977C302.285 63.4977 300.628 65.1537 300.628 67.1965C300.628 69.2392 302.285 70.8952 304.328 70.8952Z" fill="white"/>
<path d="M291.918 70.8952C293.962 70.8952 295.619 69.2392 295.619 67.1965C295.619 65.1537 293.962 63.4977 291.918 63.4977C289.875 63.4977 288.218 65.1537 288.218 67.1965C288.218 69.2392 289.875 70.8952 291.918 70.8952Z" fill="white"/>
<path d="M279.508 70.8952C281.552 70.8952 283.209 69.2392 283.209 67.1965C283.209 65.1537 281.552 63.4977 279.508 63.4977C277.465 63.4977 275.808 65.1537 275.808 67.1965C275.808 69.2392 277.465 70.8952 279.508 70.8952Z" fill="white"/>
<path d="M267.098 70.8952C269.142 70.8952 270.799 69.2392 270.799 67.1965C270.799 65.1537 269.142 63.4977 267.098 63.4977C265.055 63.4977 263.398 65.1537 263.398 67.1965C263.398 69.2392 265.055 70.8952 267.098 70.8952Z" fill="white"/>
<path d="M230.069 15.5065H179.626C177.761 15.5065 176.248 17.0181 176.248 18.8827V40.5089C176.248 42.3735 177.761 43.8851 179.626 43.8851H230.069C231.934 43.8851 233.447 42.3735 233.447 40.5089V18.8827C233.447 17.0181 231.934 15.5065 230.069 15.5065Z" fill="#3C4798"/>
<path d="M224.005 39.2976V52.1006L210.95 39.0518L224.005 39.2976Z" fill="#3B4A9A"/>
<path d="M187.189 32.4507C188.565 32.4507 189.681 31.3353 189.681 29.9593C189.681 28.5834 188.565 27.4679 187.189 27.4679C185.812 27.4679 184.696 28.5834 184.696 29.9593C184.696 31.3353 185.812 32.4507 187.189 32.4507Z" fill="white"/>
<path d="M195.546 32.4507C196.923 32.4507 198.039 31.3353 198.039 29.9594C198.039 28.5834 196.923 27.468 195.546 27.468C194.169 27.468 193.053 28.5834 193.053 29.9594C193.053 31.3353 194.169 32.4507 195.546 32.4507Z" fill="white"/>
<path d="M203.903 32.4507C205.28 32.4507 206.396 31.3353 206.396 29.9594C206.396 28.5834 205.28 27.468 203.903 27.468C202.527 27.468 201.411 28.5834 201.411 29.9594C201.411 31.3353 202.527 32.4507 203.903 32.4507Z" fill="white"/>
<path d="M212.261 32.4507C213.637 32.4507 214.753 31.3353 214.753 29.9594C214.753 28.5834 213.637 27.468 212.261 27.468C210.884 27.468 209.768 28.5834 209.768 29.9594C209.768 31.3353 210.884 32.4507 212.261 32.4507Z" fill="white"/>
<path d="M220.618 32.4507C221.994 32.4507 223.11 31.3353 223.11 29.9594C223.11 28.5834 221.994 27.468 220.618 27.468C219.241 27.468 218.125 28.5834 218.125 29.9594C218.125 31.3353 219.241 32.4507 220.618 32.4507Z" fill="white"/>
<path d="M530.508 105.631H499.55C495.09 105.631 491.46 109.259 491.46 113.717V144.66C491.46 149.119 495.09 152.747 499.55 152.747H530.508C534.968 152.747 538.597 149.119 538.597 144.66V113.717C538.597 109.259 534.97 105.631 530.508 105.631ZM530.508 151.117H499.55C495.989 151.117 493.091 148.221 493.091 144.66V117.276H536.964V144.66C536.964 148.221 534.067 151.117 530.506 151.117H530.508Z" fill="#3C4798"/>
<path d="M510.067 122.74H503.64V128.937H510.067V122.74Z" fill="#2FA836"/>
<path d="M518.501 122.741H512.074V128.937H518.501V122.741Z" fill="white"/>
<path d="M526.417 122.741H519.99V128.937H526.417V122.741Z" fill="white"/>
<path d="M534.851 122.741H528.424V128.937H534.851V122.741Z" fill="white"/>
<path d="M501.633 131.098H495.206V137.294H501.633V131.098Z" fill="white"/>
<path d="M510.067 131.098H503.64V137.294H510.067V131.098Z" fill="white"/>
<path d="M518.501 131.098H512.073V137.294H518.501V131.098Z" fill="white"/>
<path d="M526.418 131.098H519.99V137.294H526.418V131.098Z" fill="white"/>
<path d="M534.852 131.098H528.424V137.294H534.852V131.098Z" fill="white"/>
<path d="M501.633 139.457H495.206V145.653H501.633V139.457Z" fill="white"/>
<path d="M510.067 139.457H503.64V145.653H510.067V139.457Z" fill="white"/>
<path d="M518.501 139.457H512.073V145.653H518.501V139.457Z" fill="white"/>
<path d="M526.418 139.457H519.99V145.653H526.418V139.457Z" fill="white"/>
<path d="M312.902 175.075C328.228 175.075 340.653 162.657 340.653 147.338C340.653 132.019 328.228 119.6 312.902 119.6C297.575 119.6 285.15 132.019 285.15 147.338C285.15 162.657 297.575 175.075 312.902 175.075Z" fill="#79B829"/>
<path d="M301.409 132.136L300.836 132.708L300.761 132.633L294.765 138.627L302.04 145.898L305.284 142.656C309.225 145.977 313.622 150.366 316.964 154.315L313.712 157.565L320.988 164.837L322.19 163.635C322.15 163.704 322.105 163.767 322.05 163.822L327.578 158.296C330.494 155.382 304.322 129.226 301.409 132.14V132.136Z" fill="white"/>
<path d="M473.144 95.9841C481.372 95.9841 488.043 89.317 488.043 81.0928C488.043 72.8685 481.372 66.2015 473.144 66.2015C464.916 66.2015 458.245 72.8685 458.245 81.0928C458.245 89.317 464.916 95.9841 473.144 95.9841Z" fill="#79B829"/>
<path d="M482.245 83.9657H471.308V70.5609H473.374V81.901H482.245V83.9657Z" fill="white"/>
<path d="M391.965 41.3328C399.759 41.3328 406.077 35.0179 406.077 27.228C406.077 19.4382 399.759 13.1233 391.965 13.1233C384.172 13.1233 377.854 19.4382 377.854 27.228C377.854 35.0179 384.172 41.3328 391.965 41.3328Z" fill="#79B829"/>
<path d="M389.996 29.9023V29.5228C389.996 28.2034 390.535 27.2045 392.014 25.885C392.835 25.1457 393.095 24.5459 393.095 23.8459C393.095 23.0869 392.654 22.4675 391.696 22.4675C390.557 22.4675 390.177 23.2462 390.077 24.2058H387.257C387.358 22.5265 388.418 20.2494 391.737 20.2691C395.017 20.2691 395.977 22.3869 395.977 23.9462C395.977 25.2047 395.577 26.064 394.137 27.4031C393.278 28.2034 392.998 28.8621 392.998 29.6821V29.9023H390H389.996ZM389.996 34.2382V30.9209H392.994V34.2382H389.996Z" fill="white"/>
</svg>
