<svg width="620" height="359" fill="none" xmlns="http://www.w3.org/2000/svg"><path d="M3.606 330.769C56.838 308.877 109.213 221.195 84.76 149.65 42.325 25.494 206.992-49.75 294.922 38.137c55.784 55.757 190.703-31.12 254.271 63.536 33.97 50.583-15.128 131.204-13.084 170.319 1.931 37.009 51.243 58.777 51.243 58.777H3.606z" fill="#FFF7C9"/><path d="M618.995 331.329H1.005a1.005 1.005 0 010-2.009h617.99a1.005 1.005 0 010 2.009z" fill="#000"/><path d="M475.251 160.42l-11.769 12.994-20.639-22.377 13.97-5.321 18.438 14.704z" fill="#FFA46E"/><path d="M460.576 163.977l-.716.374-7.129 3.718a3.949 3.949 0 01-5.342-1.612c-6.087-15.318-13.297-29.407-22.276-41.567a3.944 3.944 0 011.615-5.337l7.449-3.888.397-.206a3.945 3.945 0 015.339 1.614c8.857 12.666 16.192 26.596 22.277 41.564a3.943 3.943 0 01-1.614 5.338v.002z" fill="#545454"/><path d="M440.643 127.603l-9.085 4.755a3.578 3.578 0 01-4.845-1.465l-3.113-5.807a3.576 3.576 0 011.466-4.843l9.085-4.755a3.58 3.58 0 014.846 1.465l3.112 5.807a3.576 3.576 0 01-1.466 4.843z" fill="#333"/><path d="M438.645 127.635l-7.126 3.706a3.085 3.085 0 01-4.177-1.262l-2.803-5.231a3.081 3.081 0 011.263-4.174l7.125-3.707a3.085 3.085 0 014.177 1.263l2.804 5.23a3.083 3.083 0 01-1.263 4.175z" fill="#6E6E6E"/><path d="M460.175 164.046l-9.085 4.755a3.58 3.58 0 01-4.846-1.465l-3.112-5.807a3.576 3.576 0 011.466-4.843l9.085-4.755a3.578 3.578 0 014.845 1.465l3.113 5.807a3.576 3.576 0 01-1.466 4.843z" fill="#333"/><path d="M458.245 164.205l-7.126 3.707a3.085 3.085 0 01-4.176-1.262l-2.804-5.231a3.083 3.083 0 011.263-4.175l7.126-3.706a3.086 3.086 0 014.177 1.262l2.803 5.231a3.081 3.081 0 01-1.263 4.174z" fill="#6E6E6E"/><path d="M443.181 156.879c-.71-.158-7.19-3.949-1.501-13.901 4.11-.316 4.553 4.952 3.793 6.318-2.37 4.265-2.292 7.583-2.292 7.583z" fill="#FFA46E"/><path d="M460.576 163.977l-.716.374c.156-.382.581-1.432 1.002-2.649.535-1.534-6.276-12.014-6.276-12.014s-7.279-1.001-10.685-7.677c-3.405-6.674-.736-13.082-.736-13.082s-3.537-6.206-5.14-9.744c-.903-1.99-2.566-3.008-3.848-3.521l.397-.207a3.946 3.946 0 015.339 1.614c8.857 12.666 16.192 26.596 22.277 41.564a3.943 3.943 0 01-1.614 5.338v.004z" fill="#333"/><path d="M451.163 148.034c1.918 1.009 3.972-.391 5.689 0 .886.202 1.049 1.542 1.818 2.053 3.872-5.449-3.59-19.312-10.043-22.305-.419-.194-4.86.232-4.627 7.054.145 4.276 5.247 12.187 7.165 13.196l-.002.002z" fill="#FFA46E"/><path d="M528.741 204.258s0 .01-.004.016a13.453 13.453 0 01-.921 3.024c-2.014 4.606-6.842 8.54-15.809 10.041-13.904 1.054-34.252 1.911-52.357 3.205-5.204.371-10.223.78-14.85 1.239-19.152-4.94-30.647-34.192-8.198-40.396 2.54-.702 13.062-.904 25.955-.566 23.445.612 54.73 3.005 60.126 7.409 4.254 3.473 7.15 9.982 6.058 16.028z" fill="#fff"/><path d="M430 183.782c-11.466 9.24-27.685 11.677-39.735.781.116-6.043 1.793-24.054 1.383-29.93l37.378 5.038c.285 7.085.687 16.997.974 24.111z" fill="#FFA46E"/><path d="M429.134 161.281c-.022-.541-.041-1.095-.061-1.608h-27.602l-8.343 1.756s11.831 19.524 36.821 22.397c-.298-8.237-.659-18.356-.813-22.545h-.002z" fill="#D46C42"/><path d="M434.56 136.002c2.538-.126 4.466-2.835 4.306-6.05-.16-3.215-2.348-5.718-4.886-5.592-2.538.126-4.466 2.835-4.306 6.05.16 3.215 2.348 5.718 4.886 5.592z" fill="#FFA46E"/><path d="M430.944 112.498c-.185.633 7.866 29.57 6.87 36.796-8.4 21.654-22.603 29.38-45.693 12.896-3.402-3.953-13.939-25.952-14.124-26.161-15.337-29.708 41.472-54.698 52.949-23.531h-.002z" fill="#FFA46E"/><path d="M425.532 105.79c4.95 1.159 6.679 14.487 8.113 18.551l.272-.771c1.247-55.51-91.098-27.816-53.402 17.446 2.731 1.667 5.67 7.156 7.319 11.124-.443-2.7 2.736-10.941 1.621-17.045 0 0-6.553-8.274-4.543-16.222 1.234-4.871 11.672-3.387 20.557-6.619 9.042-3.29 16.504-7.803 20.061-6.462l.002-.002z" fill="#000"/><path d="M404.047 134.887c1.113 3.075-2.066 4.241-3.205 1.176-1.114-3.076 2.066-4.242 3.205-1.176zm24.957-9.044c1.114 3.076-2.065 4.242-3.205 1.176-1.113-3.075 2.066-4.241 3.205-1.176z" fill="#000"/><path d="M421.959 146.675c6.229-1.984-2.666-9.159-4.501-11.014l-1.503-4.094a.526.526 0 00-.988.362l1.596 4.344c2.839 2.472 6.858 6.737 6.583 8.157-.661 2.343-6.603 1.333-6.377 2.432-.043 1.042 3.274.381 5.19-.187zm-.078 9.722a47.12 47.12 0 002.901-1.164c.62-.27.189-1.247-.43-.958-.146.065-14.561 6.471-20.205 2.263a.528.528 0 00-.736.107c2.302 4.819 14.541 1.221 18.47-.248z" fill="#C75038"/><path d="M396.457 132.653c-4.671-.183 3.218-7.278 7.847-5.52a1.05 1.05 0 11-.417 2.057c-5.382-.812-6.317 2.954-7.43 3.463zm24.489-9.268c-4.074.164 1.533-6.689 7.966-5.197a1.05 1.05 0 11-.417 2.057c-5.369-.838-6.495 2.657-7.549 3.138v.002zm-48.222-11.501s10.726-23.307 32.346-29.112c21.619-5.805 17.039 7.917 17.039 7.917 22.724-3.558-11.791 21.25-20.895 23.091-8.222 2.257-28.997 4.916-28.49-1.896z" fill="#000"/><path d="M389.097 153.055c2.93-2.243 2.999-7.071.154-10.783-2.845-3.713-7.526-4.904-10.457-2.661-2.93 2.244-2.999 7.072-.154 10.784 2.845 3.713 7.527 4.904 10.457 2.66z" fill="#FFA46E"/><path d="M386.366 150.504a.594.594 0 01-.728-.282c-2.146-4.078-3.762-4.827-4.535-4.912-.798-.086-1.257.447-1.277.468a.595.595 0 01-.832.079.59.59 0 01-.088-.826 2.704 2.704 0 012.29-.904c1.8.173 3.649 2.037 5.493 5.543a.594.594 0 01-.248.8c-.024.012-.048.024-.073.032l-.002.002z" fill="#C75038"/><path d="M355.001 340.795c-.49 5.74-.994 11.739-1.48 17.729h92.452l.665-173.994c-4.73-1.001-11.082-3.451-17.504-3.982-4.033 4.324-6.457 7.344-13.319 7.498-4.243.092-10.515-2.097-14.631-7.85-32.935 3.242-50.035 14.769-50.035 14.769l15.188 105.427s-9.489 18.801-11.336 40.403z" fill="#9EDDFF"/><path d="M466.343 358.524l-.811-8.225c-26.502 7.765-82.483 9.503-110.761 0-.244 2.847-.49 5.582-.736 8.225h112.308z" fill="#204F63"/><path d="M419.874 202.844l5.984-7.72-9.669-6.86-10.354 6.599 6.118 7.981h7.921z" fill="#3086B3"/><path d="M436.415 315.069l-12.009 19.75-11.512-19.125c2.746-35.245 1.489-80.743-.862-117.817l8.186.055c7.747 37.711 14.202 82.358 16.197 117.139v-.002z" fill="#3086B3"/><path d="M434.118 181.155l-4.274-4.442c-.364 4.513-8.729 10.359-13.655 11.553 4.431 3.771 7.852 6.628 12.306 13.497l5.623-20.606v-.002zm-49.131.696l6.427-8.105s12.888 9.627 24.775 14.518c-5.324 4.007-7.753 8.133-10.946 13.497l-20.256-19.91z" fill="#5BB9EB"/><path d="M347.307 358.524h52c6.963-61.028.042-119.968-15.06-176.281-28.634 4.275-33.328 12.722-33.328 12.722l12.364 107.761-15.976 55.798zm95.412 0h26.897l-6.994-75.977-4.631-93.388c-13.124-6.283-17.287-6.983-24.298-8.442 9.596 62.151 12.945 121.069 9.026 177.807z" fill="#fff"/><path d="M400.336 325.459l.075-.017c6.04-1.461 1.472-32.304 1.472-32.304-9.257 1.947-19.398 32.304-19.398 32.304l.145.017h17.708-.002z" fill="#276C9C"/><path d="M380.214 222.435l-15.032 50.536 36.103 20.828c-15.477 4.475-21.1 19.937-27.48 34.555l-43.717-34.907 26.847-81.807 23.277 10.795h.002z" fill="#D9F1FF"/><path d="M430.968 325.815l-34.803-.096-9.346-.028c-2.284-4.882-3.528-10.15 2.439-18.1 0 0 1.474-.14 3.734-.336 5.151-.449 14.391-1.188 19.599-1.217 12.085-.069 18.375 19.777 18.375 19.777h.002z" fill="#FFA46E"/><path d="M396.166 325.719l-9.347-.028c-2.284-4.882-3.528-10.15 2.439-18.1 0 0 1.474-.14 3.734-.336-.486 3.085-1.585 12.982 3.172 18.464h.002z" fill="#D17743"/><path d="M413.604 306.104c.37 0 10.852-.615 14.429 2.097 3.576 2.711 6.905 8.998 6.905 8.998s-.616 1.357-3.577.369c-2.959-.985-5.795-5.547-5.795-5.547l-10.606-.739-1.358-5.178h.002z" fill="#FFA46E"/><path d="M426.648 325.859a.112.112 0 01-.109-.091c-2.134-11.059-11.247-13.477-11.337-13.501a.11.11 0 11.053-.214c.092.023 9.341 2.477 11.501 13.674a.11.11 0 01-.089.13l-.021.002h.002zm-4.718-.063a.113.113 0 01-.104-.071c-1.803-4.623-10.034-7.832-10.116-7.864a.108.108 0 01-.063-.143.11.11 0 01.143-.063c.085.031 8.407 3.276 10.244 7.989a.112.112 0 01-.104.152z" fill="#D66D2D"/><path d="M350.921 195.461c-.754.232-54.868 79.834-38.421 104.805 5.969 9.063 75.696 28.2 75.696 28.2-3.262-9.018.098-20.336 13.746-35.227-1.303 0-47.008-16.852-47.008-16.852s26.99-51.02 27.425-64.462c.435-13.442-16.018-21.221-31.438-16.464zm120.531-42.495s51.227 31.546 55.617 39.533c5.347 9.732.651 24.773-17.425 23.581-18.076-1.191-52.446-41.219-52.446-41.219l14.254-21.897v.002z" fill="#fff"/><path d="M489.907 205.566c-12.825-7.63-32.563-30.087-32.762-30.314l.675-.59c.197.225 19.843 22.576 32.546 30.133l-.459.771z" fill="#D9F1FF"/><path d="M527.816 207.298c-2.014 4.606-6.842 8.54-15.809 10.041-13.903 1.054-34.252 1.911-52.357 3.205-.85-4.855-2.032-11.863-2.032-11.863s24.79 6.784 46.051 5.911c9.554-.392 18.393-2.329 23.951-7.123.064-.057.131-.114.196-.173v.002z" fill="#F2FAFF"/><path d="M459.288 169.166l-2.438 1.31-2.823-3.514 3.886-2.088 1.375 4.292z" fill="#333"/><path d="M460.01 183.104a.414.414 0 01-.309-.688c2.211-2.488-1.611-12.184-3.272-15.711a.414.414 0 11.75-.352c.254.536 6.167 13.21 3.142 16.611a.41.41 0 01-.309.138l-.002.002zm-.388 1.666a.415.415 0 01-.226-.761l4.001-2.592a.415.415 0 01.451.694l-4.002 2.592a.407.407 0 01-.224.067zm.297 1.339a.415.415 0 01-.226-.761l4.002-2.592a.415.415 0 01.572.122.415.415 0 01-.122.572l-4.001 2.592a.413.413 0 01-.225.067zm.297 1.337a.415.415 0 01-.226-.761l4.002-2.592a.415.415 0 01.572.122.415.415 0 01-.122.572l-4.001 2.592a.413.413 0 01-.225.067zm.297 1.337a.415.415 0 01-.226-.761l4.002-2.592a.415.415 0 01.572.122.415.415 0 01-.122.572l-4.001 2.592a.413.413 0 01-.225.067zm.298 1.337a.418.418 0 01-.349-.189.416.416 0 01.122-.572l4.002-2.592a.416.416 0 01.572.122.416.416 0 01-.122.573l-4.001 2.591a.412.412 0 01-.224.067zm.299 1.339a.415.415 0 01-.227-.761l4.002-2.591a.415.415 0 01.572.121.416.416 0 01-.122.573l-4.001 2.591a.404.404 0 01-.224.067zm.297 1.337a.417.417 0 01-.349-.188.417.417 0 01.122-.573l4.002-2.591a.415.415 0 01.572.122.415.415 0 01-.122.572l-4.001 2.592a.411.411 0 01-.224.066zm.297 1.337a.417.417 0 01-.349-.188.418.418 0 01.122-.573l4.002-2.591a.416.416 0 01.573.122.417.417 0 01-.122.572l-4.002 2.592a.411.411 0 01-.224.066zm.297 1.338a.418.418 0 01-.349-.189.416.416 0 01.122-.572l4.002-2.592a.416.416 0 01.573.122.417.417 0 01-.122.572l-4.002 2.592a.412.412 0 01-.224.067zm.297 1.339a.415.415 0 01-.226-.761l4.001-2.592a.416.416 0 01.573.122.416.416 0 01-.122.572l-4.002 2.592a.41.41 0 01-.224.067zm.297 1.337a.415.415 0 01-.226-.761l4.001-2.592a.416.416 0 01.573.122.416.416 0 01-.122.572l-4.002 2.592a.41.41 0 01-.224.067zm.299 1.337a.415.415 0 01-.226-.761l4.001-2.592a.416.416 0 01.573.122.416.416 0 01-.122.572l-4.002 2.592a.41.41 0 01-.224.067zm.297 1.337a.415.415 0 01-.226-.761l4.001-2.592a.418.418 0 01.573.122.416.416 0 01-.122.573l-4.002 2.591a.41.41 0 01-.224.067zm.297 1.339a.415.415 0 01-.226-.761l4.001-2.592a.418.418 0 01.573.122.416.416 0 01-.122.573l-4.002 2.591a.4.4 0 01-.224.067zm.297 1.337a.418.418 0 01-.348-.188.416.416 0 01.122-.573l4.001-2.591a.416.416 0 01.573.122.415.415 0 01-.122.572l-4.002 2.591a.402.402 0 01-.224.067zm.297 1.337a.416.416 0 01-.348-.188.416.416 0 01.122-.573l4.002-2.591a.415.415 0 01.572.122.415.415 0 01-.122.572l-4.002 2.592a.406.406 0 01-.224.066zm4.873 50.929a.414.414 0 01-.407-.491c4.694-23.986 2.593-45.394-.114-49.057-1.123-1.518-2.837-.58-2.91-.539a.413.413 0 01-.405-.72c.834-.468 2.738-.91 3.98.769 2.681 3.626 5.203 24.458.262 49.708a.415.415 0 01-.406.334v-.004z" fill="#333"/><path d="M185.916 121.808s.407 40.83 31.501 44.688c27.842.812 42.459 2.332 31.072-52.659-6.909-24.58-62.168-18.437-62.573 7.969v.002z" fill="#C95138"/><path d="M274.529 343.064H162.195l7.732-153.723c31.11-12.921 63.201-11.045 96.87 0l7.732 153.723z" fill="#9EDDFF"/><path d="M196.226 203.499c0 1.343-4.237 60.486 11.61 84.108 15.845 23.622-20.679 56.639-20.679 56.639-34.108-11.542-13.22-149.603 9.071-140.745l-.002-.002z" fill="#66C2F5"/><path d="M235.949 186.557s-3.285 12.422-16.61 12.982c-13.325.56-17.411-12.982-17.411-12.982l2.845-22.409 1.705-13.434h24.923l2.791 21.994 1.757 13.847v.002z" fill="#F7A594"/><path d="M234.19 172.71c-12.052 2.066-22.913-2.851-29.421-8.562l1.705-13.434h24.923l2.791 21.994.002.002z" fill="#DE7964"/><path d="M202.941 171.697c0 .861 15.511 27.388 15.511 27.388s-13.443 9.13-13.443 8.439c0-.69-6.376-25.321-6.376-25.321l4.308-10.508v.002z" fill="#80D3FF"/><path d="M234.995 173.074c0 .861-16.89 26.355-16.89 26.355s12.408 10.162 12.408 9.474c0-.688 8.79-25.321 8.79-25.321l-4.308-10.508z" fill="#80D3FF"/><path d="M188.473 357.899l-39.142-2.454 15.06-77.566-.022-.389-1.186-20.519-.472-8.172-1.366-23.615-1.251-21.639-.521-9.03s7.517-4.786 17.661-8.743c5.902-2.302 12.691-4.326 19.408-4.965-1.651 76.832 2.638 119.766-8.169 177.092z" fill="#fff"/><path d="M184.9 238.9c-3.946 3.966-8.416 8.239-13.775 12.423a106.807 106.807 0 01-7.942 5.648c-8.322 5.356-18.515 10.229-31.436 13.686-1.429.544-2.784.784-4.053.755-10.049-.226-14.812-17.198-8.646-31.903 1.969-4.697 5.052-9.163 9.435-12.779l31.613-23.185 14.116-10.353.041-.022c14.905-7.616 28.476 30.337 10.649 45.73h-.002z" fill="#fff"/><path d="M173.446 242.331l-2.321 8.992-6.756 26.167-1.186-20.519c-8.322 5.356-18.515 10.229-31.436 13.686-1.429.544-2.784.784-4.053.755-10.049-.226-14.812-17.198-8.647-31.903.541 9.211 2.778 17.257 8.615 19.072 5.068 1.577 11.974.209 18.881-2.283 5.735-2.07 11.474-4.916 16.168-7.499 6.311-3.471 10.735-6.468 10.735-6.468z" fill="#D9F1FF"/><path d="M241.495 182.288c18.259 1.738 34.846 10.744 34.846 10.744l-4.683 84.847 15.06 77.566h-51.389c3.512-30.874 12.69-100.525 6.164-173.157h.002z" fill="#fff"/><path d="M275.841 192.812s22.424 34.01 26.177 89.108c1.037 15.204-33.417 67.917-33.417 67.917h-39.687l39.057-60.132s-27.657-55.979-19.783-74.238c7.875-18.26 18.743-26.922 27.651-22.655h.002z" fill="#fff"/><path d="M229.886 349.03l-.598-.375 41.091-65.246-13.116-36.278.665-.24 13.233 36.602-.093.146-41.182 65.391zm-26.42-177.305c-1.93 19.072-7.277 96.159-7.277 96.159-11.808-25.84-17.104-44.593-17.104-44.593l8.576-9.215-13.754-22.88c9.473-13.102 29.561-19.471 29.561-19.471h-.002zm30.893.139c.97 20.771 10.573 48.819 8.682 95.344 11.808-25.84 15.34-44.153 15.34-44.153l-8.576-9.215 13.754-22.88c-7.307-10.914-29.2-19.096-29.2-19.096z" fill="#D9F1FF"/><path d="M243.22 254.379s-33.62-9.521-25.361-38.366c4.075-14.23 28.322-21.042 15.066-42.808l-.179-.295-1.81-16.029s12.554-2.972 17.181-9.081c-3.455 9.246.494 13.875 2.526 15.813 7.982 7.616 16.388 15.668 16.508 29.372.228 26.035-26.248 25.441-23.929 61.392l-.002.002z" fill="#C95138"/><path d="M244.824 134.35c5.963 7.822-5.753 29.938-25.763 30.007-12.624-.502-32.541-12.412-27.389-37.263-3.608-20.735 9.174-40.328 27.389-40.328 18.216 0 29.821 25.722 25.763 47.586v-.002z" fill="#F7A594"/><path d="M247.525 139.221a5.971 5.971 0 005.973-5.97 5.971 5.971 0 00-5.973-5.97 5.971 5.971 0 00-5.973 5.97 5.971 5.971 0 005.973 5.97z" fill="#F7A594"/><path d="M232.791 101.649c-8.567 17.125-39.984 25.024-39.984 25.024l-4.964.718-1.385.201s-2.626-15.022 6.933-28.806c9.562-13.784 24.775-12.532 24.775-12.532s3.053-.102 6.488.636c5.672 1.219 12.385 4.727 8.137 14.757v.002z" fill="#C95138"/><path d="M224.656 86.892c-10.291 1.476-20.108 4.853-27.411 12.523-6.612 6.944-8.758 21.359-9.4 27.976l-1.385.201s-2.626-15.022 6.933-28.806c9.562-13.784 24.775-12.532 24.775-12.532s3.053-.102 6.488.636v.002z" fill="#F56245"/><path d="M219.697 101.099c-5.066-11.466-1-14.719-1-14.719s15.216-1.252 24.775 12.532c9.561 13.784 3.685 28.269 3.685 28.269s-23.053 4.003-27.46-26.08v-.002z" fill="#C95138"/><path d="M190.004 138.896a5.972 5.972 0 005.973-5.97 5.972 5.972 0 00-5.973-5.97 5.971 5.971 0 00-5.973 5.97 5.971 5.971 0 005.973 5.97z" fill="#F7A594"/><path d="M192.17 141.582s4.946 8.892 14.542 11.277c.53.132.852.665.732 1.198a1.006 1.006 0 01-1.21.759c-2.793-.653-10.657-3.384-15.723-12.164l1.659-1.07z" fill="#000"/><path d="M191.749 142.737c2.008-.633 2.933-3.378 2.065-6.131-.868-2.753-3.2-4.472-5.208-3.839-2.009.632-2.933 3.377-2.065 6.13.868 2.753 3.199 4.472 5.208 3.84z" fill="#000"/><path d="M190.428 143.466c2.125-.669 3.103-3.572 2.185-6.483-.918-2.912-3.384-4.73-5.509-4.061-2.124.669-3.102 3.572-2.184 6.484.918 2.911 3.384 4.729 5.508 4.06z" fill="#fff"/><path d="M190.33 137.891c.529 1.678-.035 3.351-1.259 3.737-1.224.385-2.646-.663-3.175-2.34-.529-1.678.035-3.351 1.259-3.737 1.224-.385 2.646.663 3.175 2.34z" fill="#B8E5FF"/><path d="M193.537 140.161c-.024 0-.047 0-.071-.006a.426.426 0 01-.35-.49c.685-4.1-.826-8.569-2.615-10.357-2.085-2.084-4.67-.423-4.78-.35a.426.426 0 01-.47-.71c.033-.021 3.271-2.121 5.852.458 1.982 1.981 3.591 6.674 2.853 11.101a.426.426 0 01-.419.356v-.002z" fill="#000"/><path d="M191.424 126.752s28.009-6.916 34.74-23.095c4.243-11.151-2.607-17.029-2.607-17.029s6.899 2.704 6.669 14.241c-.362 18.086-38.802 25.883-38.802 25.883z" fill="#A33A23"/><path d="M217.924 142.21c-.962 0-3.061-.113-3.374-1.078-.371-1.15 2.942-10.15 3.61-11.944a.297.297 0 01.384-.175c.156.057.234.23.175.384-1.928 5.173-3.803 10.909-3.6 11.55.167.517 1.987.698 3.165.659h.01a.299.299 0 01.012.598c-.083.002-.214.006-.382.006z" fill="#BA4228"/><path d="M212.343 150.852s10.238 1.101 18.826-3.742c-2.312 9.462-12.771 14.415-18.826 3.742z" fill="#A33A23"/><path d="M204.3 133.554c-.745 0-1.357-.61-1.357-1.357v-2.714c0-.745.61-1.357 1.357-1.357.746 0 1.358.61 1.358 1.357v2.714c0 .745-.61 1.357-1.358 1.357zm28.857.22c-.745 0-1.357-.61-1.357-1.357v-2.714c0-.745.61-1.356 1.357-1.356a1.36 1.36 0 011.358 1.356v2.714c0 .745-.61 1.357-1.358 1.357z" fill="#000"/><path d="M236.429 136.802c0 .625-1.521 1.133-3.398 1.133-1.876 0-3.397-.508-3.397-1.133s1.521-1.133 3.397-1.133c1.877 0 3.398.508 3.398 1.133zm-28.564 0c0 .625-1.52 1.133-3.397 1.133-1.877 0-3.398-.508-3.398-1.133s1.521-1.133 3.398-1.133c1.877 0 3.397.508 3.397 1.133z" fill="#F79985"/><path d="M246.126 136.531a.3.3 0 01-.299-.299c0-.189.031-4.615 2.786-5.353a.299.299 0 01.155.576c-2.312.62-2.343 4.735-2.343 4.777a.3.3 0 01-.299.299z" fill="#BA4228"/><path d="M164.003 203.057l-11.042-12.546 19.398-18.269 8.957 5.628-17.313 25.187z" fill="#F7A594"/><path d="M171.871 172.95c.094-1.078 4.104-20.378 3.824-19.922 3.986-5.061 12.676 1.241 13.01 9.41 0 0-3.688 13.88-8.544 16.737-8.76 5.099-8.288-6.227-8.288-6.227l-.002.002z" fill="#F7A594"/><path d="M175.682 152.987s7.096-19.634 7.304-19.534c.209.101 2.001.472 1.712 3.377-.291 2.906-5.101 18.894-5.101 18.894l-3.913-2.739-.002.002z" fill="#F7A594"/><path d="M178.932 154.592s10.458-17.656 10.655-17.513c.197.144 1.985.871 1.129 3.829-.856 2.957-7.527 15.955-7.527 15.955l-4.257-2.269v-.002z" fill="#F7A594"/><path d="M179.732 157.813c.315-.563 6.827-5.738 8.308-6.413 1.482-.674 9.693-.814 9.693-.814s.418 2.323-2.724 2.612c-3.144.289-5.405 1.673-5.405 1.673l-5.148 8.485-4.724-5.545v.002z" fill="#F7A594"/><path d="M184.267 163.197s1.814-6.165 5.827-6.523c3.84-.342 8.224 3.577 8.224 3.577s-.097 1.369-2.772.881c-2.676-.488-3.364-1.176-3.364-1.176l-2.733.806-2.168 6.285-3.012-3.85h-.002z" fill="#F7A594"/><path d="M164.643 170.765c-1.755-.932-3.522-1.858-5.328-2.692l-29.703 55.251-9.288 12.685c-11.918 19.288 4.026 46.721 30.921 21.532 5.078-4.757 6.51-10.844 6.51-10.844l7.494-18.591 12.209-30.286 9.784-13.343c-7.207-5.089-14.809-9.577-22.599-13.714v.002z" fill="#fff"/><path d="M150.973 254.822l-.568-.421c2.158-2.918 3.773-6.214 5.337-9.401.331-.677.661-1.349.998-2.02a212.369 212.369 0 005.674-11.788c1.044-2.403 2.091-4.792 3.134-7.174 3.499-7.993 6.807-15.544 10.013-23.443l.034-.063c2.53-3.793 5.235-7.55 7.853-11.182 1.088-1.513 2.216-3.076 3.302-4.604l.576.409a929.307 929.307 0 01-3.303 4.608c-2.607 3.618-5.302 7.36-7.818 11.133-3.207 7.897-6.664 15.792-10.008 23.427-1.043 2.382-2.09 4.769-3.136 7.176a215.199 215.199 0 01-5.69 11.824c-.332.664-.661 1.337-.991 2.009-1.578 3.217-3.209 6.542-5.405 9.512l-.002-.002z" fill="#D9F1FF"/><path d="M317.665 296.607c-1.692 3.042-3.878 6.1-6.656 9.13 0 0-5.806-9.616-6.84-22.344-.795-9.763 1.215-21.355 10.802-31.843 0 0 15.536 21.99 2.696 45.057h-.002z" fill="#5FB38C"/><path d="M317.664 296.607c-1.691 3.042-3.877 6.1-6.655 9.13 0 0-5.806-9.616-6.841-22.344l13.498 13.214h-.002z" fill="#379168"/><path d="M310.846 305.373c-.333-5.227-.345-10.622-.172-15.8l-4.682-5.834.163-.132 4.531 5.644c.154-4.419.439-8.67.773-12.514l-.078.063-4.722-5.882.163-.131 4.649 5.793c.199-2.278.415-4.407.63-6.342l.006-.061c1.094-9.848 2.388-16.828 2.4-16.899l.206.039c-.013.069-1.288 6.951-2.376 16.685l6.406-4.855.125.167-6.565 4.975a270.808 270.808 0 00-.997 11.059l8.096-4.932.108.179-8.224 5.009c-.501 7.389-.741 15.772-.236 23.753l-.208.014.004.002z" fill="#379168"/><path d="M319.707 306.407c-2.906 1.918-6.254 3.624-10.12 5.032 0 0-.712-11.208 4.241-22.979 3.801-9.027 10.935-18.387 24.281-23.272 0 0 3.636 26.674-18.402 41.219z" fill="#74C9A2"/><path d="M319.707 306.407c-2.906 1.918-6.254 3.624-10.12 5.032 0 0-.712-11.208 4.241-22.979l5.879 17.947z" fill="#379168"/><path d="M335.217 279.199l-.035-.207-7.924 1.355c5.457-8.135 9.765-13.652 9.809-13.707l-.166-.13c-.043.055-4.414 5.653-9.929 13.886l-.033.051a275.164 275.164 0 00-3.484 5.337l-1.452-7.283-.207.041 1.474 7.396.098-.02a243.253 243.253 0 00-6.461 10.746l-.157.281c-2.542 4.515-5.023 9.309-7.14 14.099l.193.085c3.235-7.315 7.315-14.644 11.171-20.968l9.608-.653-.013-.208-9.459.643a268.657 268.657 0 015.988-9.352l8.121-1.388-.002-.004z" fill="#379168"/><path d="M316.468 312.831s2.601-40.941-33.368-54.108c0 0-5.447 39.974 33.368 54.108z" fill="#74C9A2"/><path d="M316.441 312.363c-2.477-5.604-5.379-11.212-8.351-16.493l1.709-8.582-.24-.047-1.654 8.302a283.13 283.13 0 00-7.559-12.571l.116.024 1.724-8.652-.24-.047-1.698 8.522a318.601 318.601 0 00-4.077-6.243c-.013-.02-.027-.04-.039-.061-6.451-9.632-11.564-16.18-11.615-16.247l-.193.152c.051.065 5.092 6.52 11.476 16.038l-9.271-1.585-.041.242 9.5 1.624a314.748 314.748 0 017.006 10.941l-11.066-.752-.016.244 11.239.763c4.512 7.4 9.286 15.971 13.07 24.529l.224-.099-.004-.002z" fill="#379168"/><path d="M329.402 300.288l-3.624 29.035h-26.862l-3.164-25.346-.46-3.689h34.11z" fill="#E3733F"/><path d="M329.402 300.288l-3.624 29.035H311.92c8.727-3.881 14.063-13.345 13.083-18.778-1.094-6.069-26.87-6.539-29.251-6.57l-.46-3.689h34.11v.002z" fill="#DB542E"/><path d="M330.364 300.097H294.33v3.261h36.034v-3.261z" fill="#E3733F"/><path d="M329.512 329.404h-35.011l-1.218-2.399h37.445l-1.216 2.399z" fill="#DB542E"/><path d="M456.827 241.389l-26.898 84.607h-72.243v3.579h75.218c7.82-24.479 25.469-79.573 28.632-88.188h-4.707l-.002.002z" fill="#33ACE6"/><path d="M461.591 241.389l-28.666 88.188h113.461l28.035-88.188h-112.83z" fill="#3C4798"/><path d="M508.528 298.461h-8.381l8.438-27.857h8.381l-8.438 27.857z" fill="#fff"/><path d="M493.352 288.72l2.538-8.375h27.871l-2.538 8.375h-27.871z" fill="#fff"/><path d="M179.374 241.389l26.898 84.607h72.243v3.579h-75.218c-7.82-24.479-25.469-79.573-28.633-88.188h4.708l.002.002z" fill="#33ACE6"/><path d="M174.609 241.389l28.666 88.188H89.815l-28.037-88.188H174.61z" fill="#3C4798"/><path d="M127.673 298.461h8.378l-8.437-27.857h-8.379l8.438 27.857z" fill="#fff"/><path d="M142.847 288.72l-2.536-8.375h-27.872l2.536 8.375h27.872z" fill="#fff"/><path d="M65.001 65.352h74.885a7.233 7.233 0 017.232 7.228v83.253a7.233 7.233 0 01-7.232 7.228H65.001a7.233 7.233 0 01-7.232-7.228V72.58c0-3.99 3.24-7.228 7.232-7.228z" fill="#79B829"/><path d="M95.159 78.371H70.93v26.44h24.228v-26.44z" fill="#fff"/><path d="M83.191 91.935c1.505 0 2.894-.733 3.781-1.85a4.745 4.745 0 001.043-3.008c0-2.661-2.162-4.861-4.824-4.861s-4.863 2.198-4.863 4.86c0 1.159.386 2.199 1.043 3.009a4.885 4.885 0 003.82 1.85zm8.545 9.173V97.02c-1.393-5.09-16.453-4.886-17.13 0l-.004 4.088h17.135-.001z" fill="#ACD082"/><path d="M132.69 78.824h-30.311a1.29 1.29 0 00-1.291 1.29v.745c0 .712.578 1.29 1.291 1.29h30.311a1.29 1.29 0 001.29-1.29v-.745a1.29 1.29 0 00-1.29-1.29zm0 8.933h-30.311a1.29 1.29 0 00-1.291 1.29v.745c0 .712.578 1.29 1.291 1.29h30.311a1.29 1.29 0 001.29-1.29v-.745a1.29 1.29 0 00-1.29-1.29zm0 9.842h-30.311a1.29 1.29 0 00-1.291 1.29v.745c0 .712.578 1.29 1.291 1.29h30.311a1.29 1.29 0 001.29-1.29v-.746a1.29 1.29 0 00-1.29-1.29zm-32.34 16.666H71.307a.903.903 0 00-.904.903v1.52c0 .498.405.903.903.903h29.044a.903.903 0 00.903-.903v-1.52a.903.903 0 00-.903-.903zm0 10.403H71.307a.903.903 0 00-.904.902v1.52c0 .499.405.903.903.903h29.044a.903.903 0 00.903-.903v-1.52a.902.902 0 00-.903-.902zm0 10.4H71.307a.903.903 0 00-.904.902v1.52c0 .499.405.903.903.903h29.044a.903.903 0 00.903-.903v-1.52a.902.902 0 00-.903-.902zm0 10.4H71.307a.903.903 0 00-.904.902v1.52c0 .499.405.903.903.903h29.044a.903.903 0 00.903-.903v-1.52a.902.902 0 00-.903-.902zm34.793-32.276h-28.149v36.33h28.149v-36.33z" fill="#fff"/><path d="M253.067 87.873h74.903a5.016 5.016 0 005.017-5.014V50.748a5.015 5.015 0 00-5.017-5.014h-74.903a5.015 5.015 0 00-5.016 5.014v32.11a5.015 5.015 0 005.016 5.015z" fill="#3C4798"/><path d="M262.07 81.065v19.011L281.456 80.7l-19.386.365z" fill="#3B4A9A"/><path d="M316.738 70.895a3.7 3.7 0 10.002-7.4 3.7 3.7 0 00-.002 7.4zm-12.41 0a3.7 3.7 0 10.002-7.4 3.7 3.7 0 00-.002 7.4zm-12.41 0a3.7 3.7 0 10.002-7.4 3.7 3.7 0 00-.002 7.4zm-12.41 0a3.7 3.7 0 10.002-7.4 3.7 3.7 0 00-.002 7.4zm-12.41 0a3.7 3.7 0 10.002-7.4 3.7 3.7 0 00-.002 7.4z" fill="#fff"/><path d="M230.069 15.507h-50.443a3.378 3.378 0 00-3.378 3.376v21.626a3.378 3.378 0 003.378 3.376h50.443a3.378 3.378 0 003.378-3.376V18.883a3.378 3.378 0 00-3.378-3.376z" fill="#3C4798"/><path d="M224.005 39.298V52.1L210.95 39.05l13.055.247z" fill="#3B4A9A"/><path d="M187.189 32.45a2.492 2.492 0 100-4.983 2.492 2.492 0 000 4.984zm8.357 0a2.492 2.492 0 10-2.493-2.49 2.492 2.492 0 002.493 2.49zm8.357 0a2.492 2.492 0 10.002-4.983 2.492 2.492 0 00-.002 4.984zm8.358 0a2.492 2.492 0 100-4.983 2.492 2.492 0 000 4.984zm8.357 0a2.492 2.492 0 100-4.983 2.492 2.492 0 000 4.984z" fill="#fff"/><path d="M530.508 105.631H499.55c-4.46 0-8.09 3.628-8.09 8.086v30.943c0 4.459 3.63 8.087 8.09 8.087h30.958c4.46 0 8.089-3.628 8.089-8.087v-30.943c0-4.458-3.627-8.086-8.089-8.086zm0 45.486H499.55a6.465 6.465 0 01-6.459-6.457v-27.384h43.873v27.384a6.464 6.464 0 01-6.458 6.457h.002z" fill="#3C4798"/><path d="M510.067 122.74h-6.427v6.197h6.427v-6.197z" fill="#2FA836"/><path d="M518.501 122.741h-6.427v6.196h6.427v-6.196zm7.916 0h-6.427v6.196h6.427v-6.196zm8.434 0h-6.427v6.196h6.427v-6.196zm-33.218 8.357h-6.427v6.196h6.427v-6.196zm8.434 0h-6.427v6.196h6.427v-6.196zm8.434 0h-6.428v6.196h6.428v-6.196zm7.917 0h-6.428v6.196h6.428v-6.196zm8.434 0h-6.428v6.196h6.428v-6.196zm-33.219 8.359h-6.427v6.196h6.427v-6.196zm8.434 0h-6.427v6.196h6.427v-6.196zm8.434 0h-6.428v6.196h6.428v-6.196zm7.917 0h-6.428v6.196h6.428v-6.196z" fill="#fff"/><path d="M312.902 175.075c15.326 0 27.751-12.418 27.751-27.737 0-15.319-12.425-27.738-27.751-27.738-15.327 0-27.752 12.419-27.752 27.738 0 15.319 12.425 27.737 27.752 27.737z" fill="#79B829"/><path d="M301.409 132.136l-.573.572-.075-.075-5.996 5.994 7.275 7.271 3.244-3.242c3.941 3.321 8.338 7.71 11.68 11.659l-3.252 3.25 7.276 7.272 1.202-1.202a.896.896 0 01-.14.187l5.528-5.526c2.916-2.914-23.256-29.07-26.169-26.156v-.004z" fill="#fff"/><path d="M473.144 95.984c8.228 0 14.899-6.667 14.899-14.891 0-8.225-6.671-14.892-14.899-14.892-8.228 0-14.899 6.668-14.899 14.892s6.671 14.891 14.899 14.891z" fill="#79B829"/><path d="M482.245 83.966h-10.937V70.56h2.066V81.9h8.871v2.065z" fill="#fff"/><path d="M391.965 41.333c7.794 0 14.112-6.315 14.112-14.105s-6.318-14.105-14.112-14.105c-7.793 0-14.111 6.315-14.111 14.105s6.318 14.105 14.111 14.105z" fill="#79B829"/><path d="M389.996 29.902v-.38c0-1.319.539-2.317 2.018-3.637.821-.74 1.081-1.34 1.081-2.04 0-.758-.441-1.377-1.399-1.377-1.139 0-1.519.778-1.619 1.738h-2.82c.101-1.68 1.161-3.957 4.48-3.937 3.28 0 4.24 2.118 4.24 3.677 0 1.259-.4 2.118-1.84 3.457-.859.8-1.139 1.46-1.139 2.28v.22h-3.002zm0 4.336v-3.317h2.998v3.317h-2.998z" fill="#fff"/></svg>